<?xml version="1.0" encoding="utf-8"?>
<!-- Generator: Adobe Illustrator 21.0.0, SVG Export Plug-In . SVG Version: 6.00 Build 0)  -->
<svg version="1.1" id="Layer_1" xmlns="http://www.w3.org/2000/svg" xmlns:xlink="http://www.w3.org/1999/xlink" x="0px" y="0px"
	 viewBox="0 0 369.2 439.6" style="enable-background:new 0 0 369.2 439.6;" xml:space="preserve">
<style type="text/css">
	.st0{fill:#800000018000000180000001;}
</style>
<g>
	<path class="st0" d="M234,373.4c-12.7,0.7-28.9,1.1-49.6,1.1c-20.6,0-36.9-0.4-49.6-1.1c-10.7-0.6-18.9-1.5-24.9-2.6l-1.4-0.3l1,1
		c3.7,3.9,10.8,11.2,17.4,16.6c5.1,4.2,8.7,6.3,10.7,6.3h93.6c2.1,0,5.6-2.1,10.7-6.3c6.6-5.4,13.7-12.7,17.4-16.6l1-1l-1.4,0.3
		C252.9,372,244.8,372.8,234,373.4z"/>
	<path class="st0" d="M239,418.5h-0.1V418v-0.5h-7.7v-20.1h-11.5v20.1h-4.6v-20.1h-2.4v20.1H205v0.5v0.5v18.9l-0.1,0.4
		c5.7,1.2,11.4,1.8,17.1,1.8s11.4-0.6,17.1-1.8l-0.1-0.4V418.5z M217.4,437.4v1.2c-2.5-0.1-5-0.4-7.5-0.8v-0.4v-18.9h7.5V437.4z"/>
	<path class="st0" d="M164,418.5V418v-0.5h-7.7v-20.1h-11.5v20.1h-4.6v-20.1h-2.4v20.1H135h-5v0.5v0.5v18.9l-0.1,0.4
		c5.7,1.2,11.4,1.8,17.1,1.8s11.4-0.6,17.1-1.8l-0.1-0.4V418.5z M142.4,437.4v1.2c-2.5-0.1-5-0.4-7.5-0.8v-0.4v-18.9h7.5V437.4z"/>
	<path class="st0" d="M184.3,341.7c20.3,0,36.8-5.5,36.8-12.3s-16.5-12.3-36.8-12.3s-36.8,5.5-36.8,12.3S164,341.7,184.3,341.7z
		 M198,333.1c0.1-0.2,0.1-0.2,0.1-0.2l3.2-8.7c0,0,0-0.2,0-0.3s-0.1-0.2-0.1-0.2h8.7c0,0-0.1,0-0.1,0.2c0,0.1,0,0.3,0,0.3l3.8,8.9
		l0.1,0.2l0.2,0.1H207c0,0,0.1-0.2,0.1-0.3s0-0.2,0-0.2l-0.4-1.3h-3l-0.5,1.3c0,0,0,0,0,0.1c0,0.2,0.1,0.3,0.1,0.3h-5.5
		C197.9,333.2,198,333.2,198,333.1z M184.8,333.4v-0.3v-8.8l0.1-0.3l-0.1-0.2H196v2.9l-0.2-0.1h-0.3h-4.6v0.8h3.6h0.3l0.2-0.1v2.7
		l-0.2-0.1l-0.3-0.1h-3.6v0.9h4.6l0.3-0.1l0.2-0.1v3.1h-11.3L184.8,333.4z M173.9,323.9l-0.1,0.1l-0.1,0.3v3.1l2.3-3
		c0,0,0-0.1,0-0.3c0-0.1-0.1-0.3-0.1-0.3h6.4l-2.8,4l3.3,5.4l0.3,0.2l0.3,0.1h-7.7l0.1-0.1c0-0.2,0-0.4,0-0.4l-2-3.2v3.3l0.1,0.3
		l0.1,0.1h-6.4l0.1-0.1l0.1-0.3v-8.8l-0.2-0.3l-0.1-0.1H173.9z M157.6,323.9h6.4l-0.1,0.1l-0.1,0.3v8.8l0.1,0.3l0.1,0.2h-6.4
		l0.1-0.2v-0.3v-8.8V324L157.6,323.9z"/>
	<polygon class="st0" points="205.2,327.9 204.4,329.6 205.9,329.6 	"/>
	<path class="st0" d="M369.2,61.2c-2.4,3.3-7.3,5.2-13.7,6.9c-1.6,0.4-40.3,10.6-148,11.4v8.3c86-0.7,134.1-7.7,147.5-11.4
		c8.5-2.3,13.8-4.8,14-9.8c0-0.7,0.1-1.4,0.1-2.1C369.2,63.3,369.3,62.2,369.2,61.2z"/>
	<path class="st0" d="M205.5,89.8V89l-3.9-2.8h-11.4l-1.7,2.3v1.4h-1c-93.7-0.2-125.5-4.7-151-8.4c-2.2-0.3-4.4-0.6-6.6-0.9
		c-6.9-1-12.1-1.9-16.2-2.9c0.5,11,3.3,35.2,9.8,62.9c6.7,28.7,28.8,58.7,28.8,58.7c14.2,23.6,42.7,46.6,47.6,55.8
		c2.4,4.5,2.3,9.9,2.5,16.7c0.3,14.8,1.8,41.8,3,63.7c0.5,21,0.9,15.9,1.2,30.7c0,0.4,0,0.7,0,1c6,1.5,15.5,2.6,28,3.3
		c13.4,0.8,30,1.1,49.4,1.1h0.1h0.1c19.4,0,36-0.4,49.4-1.1c12.5-0.7,22-1.8,28-3.3c0-0.3,0-0.6,0-1c0.3-14.8,0.8-9.6,1.2-30.7
		c1.2-21.9,2.8-48.8,3-63.7c0.2-6.8,0.1-12.2,2.5-16.7c5-9.2,33.5-32.2,47.6-55.9c0,0,22.2-30,28.8-58.7c6.3-27,9.2-50.6,9.8-62
		c-4.6,1.3-44.8,10.6-148,11.3H205.5z M222,342.8h-75.3v-27H222V342.8z"/>
	<path class="st0" d="M0.6,59c0.2,0.2,0.3,0.4,0.5,0.6c1.2,1.4,4.3,5.3,29,8.7c2.2,0.3,4.3,0.6,6.6,0.9c25.5,3.7,57.2,8.2,150.8,8.4
		h0.4l1.6-2c0.1-0.1,0.2-0.2,0.4-0.2h11.8c0.1,0,0.2,0,0.3,0.1l3.5,2.1v-0.1h1c86.6-0.6,135-7.7,148.5-11.4c7.2-2,12.3-4.1,13.7-7.9
		l0.3-0.8c-1.1-1.5-3.2-2.9-6.8-4.3c-9.9-3.7-19.1-5.1-25-5.5c-0.1,0-0.2,0-0.4,0c0-12.3-0.3-19.9-1.8-27.1l-0.1-0.5
		c-0.1-0.3-0.1-0.7-0.2-1c-1-4.2-7.6-11.8-41.7-15.5c-18.1-2-81-3.3-107.8-3.4h-0.5c-14.1,0-37.1,0.4-57.2,0.9
		C113.4,1.3,87.9,2.1,77,3.4c-34,3.8-40.7,11.4-41.7,15.5c-0.5,2.3-0.9,4.6-1.2,7c-0.7,6-0.9,13-0.9,22.5
		c-3.4,0.4-11.9,1.4-17.9,2.8C7.7,53,0.6,54.2,0,57.3L0.6,59C0.7,59,0.7,59.1,0.6,59z M332.8,48.5v0.2c0,4.9,0,8.2-17,10.7
		c-19.5,2.9-58.6,4.2-130.7,4.2h-0.3c-72.1,0-111.1-1.3-130.7-4.2c-17-2.6-17-5.8-17-10.7v-0.2c0-8,0.1-14.2,0.6-19.4
		c8.2,6.4,38,9.3,146.7,9.3h0.2c71.3,0,110.1-1.2,129.8-4.1c10.2-1.5,15.2-3.4,17.6-5.9C332.6,33.2,332.8,39.2,332.8,48.5z M41.3,17
		c4.9,7.8,38.2,8.7,143.5,8.7l0,0c0,0,0,0,0.1,0s0,0,0.1,0l0,0c105.7,0,138.9-0.9,143.6-8.8c1.2,1,2,1.9,2.2,2.9
		c0.1,0.3,0.1,0.6,0.2,1l0.1,0.5c0.3,1.3,0.5,2.7,0.7,4.1c-1.4,2.8-5.4,5.1-17.6,6.9c-19.6,2.9-58.4,4.1-129.5,4.1h-0.2
		c-114,0-140.9-3.3-146.4-9.8c0-0.1,0-0.2,0-0.2l0,0c0.3-2.2,0.6-4.4,1.1-6.6C39.4,18.8,40.1,17.9,41.3,17z M184.9,23.7
		C89,23.7,47,22.9,43,15.8c6-3.6,18.5-6.7,34.5-8.5c8-0.9,25.8-1.7,50.3-2.4c20-0.5,43-0.9,57.1-0.9h0.5c26.8,0,89.4,1.3,107.3,3.3
		c15.9,1.8,28.3,4.9,34.3,8.4C323.1,22.9,281.2,23.7,184.9,23.7z"/>
	<path class="st0" d="M36.7,79.5c25.4,3.6,57,8.2,149.8,8.4v-8.3c-93-0.2-124.6-4.8-150.1-8.4c-2.2-0.3-4.4-0.6-6.5-0.9
		C8.2,67.2,2.6,63.9,0.5,61.8c-0.4,4.5-0.2,7.1,0.2,7.5c0.1,0.2,0.3,0.4,0.4,0.6c1.2,1.4,4.3,5.3,29,8.7
		C32.3,78.9,34.5,79.2,36.7,79.5z"/>
	<path class="st0" d="M190.2,76.5l-1.7,2v8.4l1-1.4c0.1-0.1,0.2-0.2,0.4-0.2h11.8c0.1,0,0.2,0,0.3,0.1l3.5,2.5v-9l-3.9-2.4H190.2z"
		/>
</g>
</svg>
