<?xml version="1.0" encoding="utf-8"?>
<svg width="960px" height="960px" viewBox="0 0 960 960" version="1.1" xmlns="http://www.w3.org/2000/svg">
  <title>sound_controller/learnmode</title>
  <style type="text/css">
    	#pair {
    		animation: pair 4s infinite;
    	}

    	@keyframes pair {
    		0%, 20%, 80%, 100% {
    			fill: rgba(255,255,255,0);
    		}
    		40%, 60% {
    			fill: #0074CC;
    		}
    	}
    </style>
  <g id="sound_controller/learnmode" stroke="none" stroke-width="1" fill="none" fill-rule="evenodd" transform="matrix(1, 0, 0, 1, -1.277134, -0.84337)">
    <circle id="Oval" stroke="#000000" stroke-width="20" stroke-linejoin="round" cx="480" cy="480" r="465"/>
    <circle id="Oval" stroke="#000000" stroke-width="10" stroke-linejoin="round" cx="670.987" cy="434.373" r="201.603" style=""/>
    <path d="M 469.687 599.726 C 473.293 598.452 477.128 598.68 480.656 600.273 C 484.099 601.88 486.851 604.808 488.12 608.403 C 488.276 608.844 488.075 609.327 487.662 609.531 L 487.595 609.561 L 486.604 609.957 L 485.61 610.455 C 485.04 610.74 484.376 610.372 484.29 609.767 L 484.283 609.701 L 484.269 609.661 C 483.318 607.151 481.399 605.121 478.945 603.988 C 476.552 602.839 473.619 602.686 471.044 603.606 L 469.799 604.083 C 468.364 604.629 466.938 605.152 464.97 605.859 L 464.392 606.066 L 461.465 607.107 C 458.937 608.01 456.876 609.889 455.7 612.314 L 455.525 612.687 C 454.487 614.979 454.343 617.733 455.164 620.203 L 455.236 620.414 L 455.306 620.6 C 456.255 623.11 458.175 625.14 460.629 626.273 C 462.96 627.392 465.801 627.567 468.344 626.719 L 468.549 626.648 L 478.208 623.154 C 478.667 622.989 479.17 623.211 479.363 623.651 L 479.388 623.715 L 480.106 625.77 C 480.264 626.221 480.049 626.714 479.621 626.909 L 479.555 626.936 L 469.99 630.433 C 466.383 631.705 462.549 631.478 459.021 629.885 C 455.645 628.309 452.933 625.465 451.633 621.965 L 451.576 621.81 L 451.498 621.655 L 451.474 621.603 L 451.453 621.55 C 450.18 617.94 450.408 614.096 452.002 610.684 C 453.608 607.24 456.536 604.488 460.105 603.229 L 461.036 602.871 C 462.262 602.402 463.451 601.961 464.946 601.419 L 466.13 600.993 L 469.687 599.726 Z M 493.206 591.449 C 496.813 590.176 500.648 590.403 504.175 591.997 C 507.618 593.603 510.371 596.531 511.64 600.126 C 511.666 600.2 511.682 600.277 511.689 600.354 L 511.692 600.432 L 511.692 600.479 L 511.716 600.548 C 512.852 603.849 512.67 607.42 511.288 610.746 L 511.192 610.973 L 511.092 611.198 C 509.517 614.574 506.672 617.286 503.183 618.583 L 493.407 622.156 C 489.801 623.429 485.965 623.202 482.438 621.608 C 478.995 620.001 476.243 617.073 474.973 613.478 C 474.818 613.038 475.019 612.554 475.432 612.35 L 475.499 612.32 L 476.489 611.924 L 477.484 611.427 C 478.033 611.152 478.67 611.484 478.792 612.052 L 478.803 612.115 L 478.81 612.18 L 478.825 612.221 C 479.726 614.6 481.497 616.548 483.759 617.705 L 483.949 617.799 L 484.136 617.887 C 486.644 619.046 489.478 619.195 492.075 618.267 L 496.318 616.753 C 497.8 616.218 498.974 615.786 500.135 615.346 L 500.426 615.236 L 501.629 614.774 C 504.156 613.871 506.217 611.993 507.393 609.568 L 507.569 609.194 C 508.607 606.903 508.75 604.148 507.93 601.679 L 507.857 601.468 L 507.789 601.282 C 506.862 598.835 505.017 596.847 502.653 595.698 L 502.275 595.52 C 499.983 594.482 497.228 594.339 494.758 595.16 L 494.546 595.232 L 484.991 598.726 C 484.531 598.894 484.026 598.672 483.834 598.231 L 483.809 598.166 L 483.09 596.112 C 482.932 595.66 483.147 595.168 483.575 594.973 L 483.641 594.946 L 493.206 591.449 Z" id="Shape" fill="#000000" fill-rule="nonzero" style="" transform="matrix(0.848048, -0.529919, 0.529919, 0.848048, -250.57725, 348.014074)"/>
    <line style="stroke: rgb(0, 0, 0); stroke-width: 14px;" x1="410.602" y1="12.494" x2="410.602" y2="72.253"/>
    <line style="stroke: rgb(0, 0, 0); stroke-width: 14px;" x1="544.072" y1="10.867" x2="544.072" y2="70.626"/>
    <circle id="circle-1" stroke="#000000" stroke-linejoin="round" cx="481.048" cy="479.737" r="417.684" style="stroke-width: 10px;"/>
    <line style="stroke: rgb(0, 0, 0); stroke-width: 10px;" x1="441.554" y1="787.879" x2="516.735" y2="674.145"/>
    <line style="stroke: rgb(0, 0, 0); stroke-width: 10px;" x1="466.012" y1="801.602" x2="541.193" y2="687.868"/>
  </g>
  <rect x="1315.791" y="848.192" width="82.994" height="52.048" style="stroke: rgb(0, 0, 0); paint-order: stroke; stroke-width: 10px;" rx="32.771" ry="32.771" transform="matrix(0.82905, 0.559174, -0.559174, 0.82905, -95.693634, -825.086243)" id="pair"/>
</svg>