<?xml version="1.0" encoding="utf-8"?>
<!-- Generator: Adobe Illustrator 21.0.0, SVG Export Plug-In . SVG Version: 6.00 Build 0)  -->
<svg version="1.1" id="Layer_1" xmlns="http://www.w3.org/2000/svg" xmlns:xlink="http://www.w3.org/1999/xlink" x="0px" y="0px"
	 viewBox="0 0 529.9 944.2" style="enable-background:new 0 0 529.9 944.2;" xml:space="preserve">
<style type="text/css">
	.st0{fill:#010101;}
	.st1{fill-rule:evenodd;clip-rule:evenodd;fill:#2B2A29;}
	.st2{fill:#221F1F;}
</style>
<g>
	<path d="M217.1,611h96v-34.4h-96V611z M265.1,578.1c25.9,0,46.9,7,46.9,15.7s-21,15.7-46.9,15.7c-25.9,0-46.9-7-46.9-15.7
		S239.3,578.1,265.1,578.1z"/>
	<path d="M243.8,598.9l-0.1,0.2h8.2l-0.1-0.2l-0.1-0.4v-4.3l2.6,4.1c0,0,0.1,0.3,0.1,0.6c0,0.1-0.1,0.1-0.1,0.2h9.9l-0.4-0.2
		l-0.3-0.2l-4.3-6.8l3.6-5h-8.1c0,0,0.1,0.2,0.1,0.4c0,0.2-0.1,0.4-0.1,0.4l-3,3.9v-4l0.1-0.4l0.1-0.2h-8.2l0.1,0.2l0.1,0.3v11.2
		L243.8,598.9z"/>
	<path d="M254,599.1C254,599.1,254,599.1,254,599.1L254,599.1C254,599,254,599.1,254,599.1z"/>
	<polygon points="231.2,598.9 231.1,599.1 239.3,599.2 239.2,598.9 239.1,598.6 239.1,587.4 239.2,587 239.3,586.8 231.1,586.8 
		231.2,587 231.2,587.3 231.2,598.5 	"/>
	<polygon points="265.9,598.9 265.8,599.2 280.1,599.2 280.1,595.3 279.9,595.4 279.5,595.5 273.5,595.5 273.5,594.4 278.1,594.4 
		278.4,594.5 278.7,594.6 278.7,591.2 278.5,591.3 278.1,591.3 273.5,591.3 273.5,590.3 279.4,590.3 279.8,590.4 280.1,590.5 
		280.1,586.7 265.8,586.7 265.9,587 266,587.3 266,598.5 	"/>
	<path d="M289.1,598.6c0-0.1,0.1-0.1,0.1-0.1l0.6-1.6h3.8l0.6,1.6c0,0,0,0.2,0.1,0.3c0,0.1-0.1,0.4-0.1,0.4l8.8,0l-0.2-0.2l-0.2-0.2
		l-4.9-11.3c0,0-0.1-0.2,0-0.4c0-0.2,0.1-0.2,0.1-0.2h-11.1c0,0,0.1,0.1,0.1,0.2c0,0.2,0,0.4,0,0.4l-4.1,11.1c0,0,0,0-0.1,0.2
		c-0.1,0.3-0.4,0.4-0.4,0.4h7.1C289.2,599,289.1,598.8,289.1,598.6z M291.7,592l1,2.2h-1.9L291.7,592z"/>
	<path d="M524.5,263.9c0-69.3-27-134.5-76-183.5c-49-49-114.2-76-183.5-76s-134.5,27-183.5,76c-49,49-76,114.2-76,183.5
		c0,53.6,16.1,104.8,46.7,148.5c-2.2,2.3-3.3,6.5-0.1,11.8c46.1,74.6,57.9,97.9,59.4,131.9c0.3,6.3,0.5,12.2,0.8,17.7
		c1.2,27.2,2,45.1,3.6,63.2c0,0.5,0.1,1,0.1,1.6c0.5,6.7,1.6,20.7,10.5,26.7c4.2,2.9,20,15.1,34,27.2c13.3,11.5,20.3,18.7,23.9,23.1
		l-0.1,34.5c1.5,3.4,2.7,6.8,4.7,9.7v0c0.4,0.6,0.7,1.1,1,1.6c1.3,2.1,2.5,4.5,3.4,6.8c0.8,2.1,1.4,4.2,1.7,6.2l0,0.2l0,0.2
		c1.1,4.2,2.1,9.5,2.8,15.8c0.9,7,1.6,14.9,2.1,23.4c0.5,9.3,0.9,19,1.1,28.6c0.2,10.6,0.2,21.1,0.1,30.5l0,3.3l0.3,0l18.7,27.7
		h-0.2l6.4,7.6l16.4,19.6l0,0l0.4,0.4c3,3.5,6,7.1,21.5,7.8h0.2c15.5-0.8,18.5-4.3,21.5-7.8l0.4-0.4l0,0l16.4-19.6l6.4-7.6h-0.1
		l19.2-27.8h-0.2l0-3.3c-0.2-9.4-0.2-19.9,0.1-30.5c0.2-9.5,0.5-19.3,1.1-28.6c0.5-8.5,1.2-16.5,2.1-23.4c0.8-6.3,1.7-11.7,2.8-15.8
		l0-0.2l0-0.2c0.3-2,0.9-4.1,1.7-6.2c0.9-2.3,2.1-4.7,3.4-6.8c0.3-0.4,0.6-1,1-1.6c1.8-2.8,3.1-5.7,4.7-8.8l0.3-35.4v-0.5
		c3.8-4.4,10.7-11.5,23.5-22.6c14.1-12.1,29.9-24.3,34-27.2c8.9-6.1,9.9-20,10.5-26.8c0-0.6,0.1-1.1,0.1-1.6
		c1.7-18.1,2.4-36.1,3.6-63.3c0.2-5.5,0.5-11.4,0.8-17.7c1.5-33.7,13.1-56.9,58.2-130l1.2-1.9c3.3-5.3,2.1-9.5-0.1-11.8
		C508.4,368.7,524.5,317.5,524.5,263.9z M87.1,86C134.6,38.5,197.8,12.3,265,12.3S395.3,38.5,442.8,86
		c47.5,47.5,73.7,110.7,73.7,177.9c0,53.2-16.4,104.1-47.5,147.1c-12.9,1.9-99.3,14.4-203.7,14.4c-107.3,0-195.7-13.2-204.6-14.6
		c-31-43-47.4-93.8-47.4-146.9C13.4,196.7,39.6,133.5,87.1,86z M282.7,926.5l-0.4,0.5c-2.2,2.5-4.3,5.1-17.4,5.8
		c-13.1-0.7-15.2-3.2-17.4-5.8l-0.4-0.5l-10.6-12.6c1.6,0.1,3.4,0.2,5.3,0.3c3.3,0.1,7,0.2,11,0.3c3.9,0,7.9,0.1,12.1,0.1
		c4.1,0,8.2,0,12.1-0.1c3.9,0,7.6-0.1,11-0.3c1.9-0.1,3.7-0.2,5.3-0.3L282.7,926.5z M329.7,766.3c-0.9,2.4-1.6,4.9-2.1,7.4
		c-1.1,4.4-2.1,10-2.9,16.5c-0.8,7-1.5,15-2.1,23.5c-0.6,9-0.9,18.7-1.1,28.3c-0.2,9.3-0.2,18.5-0.1,27l-2.5,0.2
		c-2,0.2-3.9,0.4-5.6,0.5c-2.5,0.2-4.8,0.4-7.1,0.5c-2.6,0.2-5.1,0.3-7.5,0.5c-2.8,0.1-5.5,0.2-8.1,0.4c-2.9,0.1-5.7,0.2-8.4,0.3
		c-3,0.1-5.9,0.1-8.7,0.2c-2.9,0-5.8,0.1-8.6,0.1c-2.8,0-5.7,0-8.6-0.1c-2.8,0-5.7-0.1-8.7-0.2c-2.7-0.1-5.5-0.2-8.4-0.3
		c-2.6-0.1-5.4-0.2-8.1-0.4c-2.4-0.1-4.9-0.3-7.5-0.5c-2.3-0.1-4.7-0.3-7.2-0.5c-1.7-0.1-3.6-0.3-5.6-0.5l-2.5-0.2
		c0.1-5.9,0.1-12.1,0-18.5c6.7,0.8,14.1,1.4,21.7,1.9c13.9,0.9,28.3,1.2,40.8,1.2v-5.5c-12.6,0-27-0.4-40.6-1.2
		c-7.7-0.5-15.1-1.1-21.9-1.9c0-1,0-2-0.1-3c-0.1-4.5-0.2-9.1-0.4-13.6c6.9,0.8,14.4,1.5,22.2,1.9c13.9,0.9,28.3,1.2,40.8,1.2v-5.5
		c-12.6,0-27-0.4-40.6-1.2c-7.9-0.5-15.6-1.2-22.6-2c-0.1-3.1-0.3-6.2-0.5-9.2c-0.2-2.5-0.3-5-0.5-7.4c7.2,0.9,15.2,1.6,23.4,2.1
		c13.9,0.9,28.3,1.2,40.8,1.2v-5.5c-12.6,0-27-0.4-40.6-1.2c-8.5-0.5-16.7-1.2-24-2.2c-0.3-3.7-0.7-7.2-1.1-10.6
		c-0.3-2.2-0.6-4.2-0.9-6.2c7.8,1,16.7,1.8,25.9,2.4c13.9,0.9,28.3,1.2,40.8,1.2v-5.5c-12.6,0-27-0.4-40.6-1.2
		c-9.6-0.6-18.9-1.4-27-2.6c-0.3-1.6-0.7-3.2-1.1-4.6c-0.4-2.5-1.1-5-2.1-7.4c-0.6-1.5-1.3-3.1-2.1-4.5l2.3,0.3
		c3.6,0.5,7.3,0.9,11.2,1.2c7.6,0.7,16,1.2,24.6,1.6c9.6,0.4,19.4,0.7,28.5,0.7h0c9.1,0,18.9-0.3,28.5-0.7
		c8.6-0.4,17.1-0.9,24.6-1.6c4-0.3,7.9-0.8,11.4-1.3l2.5-0.3C331.1,763.2,330.3,764.7,329.7,766.3z M330,753.9
		c-3.5,0.5-7.4,0.9-11.5,1.3c-7.9,0.8-16.4,1.3-24.9,1.7c-9.8,0.4-19.7,0.6-28.9,0.7c-9.1-0.1-19.1-0.3-28.9-0.7
		c-8.5-0.4-17-0.9-24.8-1.7c-4-0.4-7.8-0.8-11.2-1.2c-3.1-0.4-5.9-0.9-8.4-1.4l0-35.8c16.1,2.3,78.4,9.6,147.6-2.1v0.8l-0.4,36.9
		C335.9,753,333.1,753.5,330,753.9z M399,658.7c-4.5,3.1-20.6,15.5-35.2,28.1c-10.2,8.8-16.9,15.3-21.4,20.2l-0.6,0.1
		c-75,13.4-142.7,3.8-152.1,2.3c-4.4-5.1-11.6-12.3-23.5-22.7c-14.6-12.6-30.7-25-35.2-28.1c-1.3-0.9-2.3-2.1-3.1-3.6
		c30.8,11.3,72.7,16.3,137.2,16.3c64.4,0,106.3-4.9,137.1-16.3C401.3,656.6,400.2,657.8,399,658.7z M410.5,555.7
		c-0.3,6.3-0.5,12.2-0.8,17.7c-1.2,27.1-2,45-3.6,62.9c0,0.5-0.1,1-0.1,1.7c-0.2,3-0.6,7.8-1.8,12.1
		c-30.6,12.1-72.8,17.3-139.2,17.3c-66.4,0-108.6-5.2-139.2-17.3c-1.2-4.3-1.6-9.1-1.8-12.1c0-0.6-0.1-1.2-0.1-1.7
		c-1.6-17.9-2.4-35.8-3.6-62.8c-0.2-5.5-0.5-11.4-0.8-17.7c-0.1-1.9-0.2-3.7-0.3-5.6c-2.3-28.3-12.9-51.7-39.7-96.5c0,0,0,0,0,0
		c0-0.1-0.1-0.1-0.1-0.2c0,0,0,0,0,0c-0.1-0.1-0.2-0.3-0.2-0.4c0,0,0,0,0,0c0-0.1-0.1-0.1-0.1-0.2l0,0c-0.1-0.1-0.1-0.2-0.2-0.4
		c0,0,0,0,0-0.1c0-0.1-0.1-0.1-0.1-0.2c0,0,0-0.1-0.1-0.1c0,0,0,0,0-0.1c-0.1-0.1-0.1-0.2-0.2-0.3c0,0,0,0,0,0
		c-0.1-0.2-0.2-0.3-0.3-0.5c0,0,0,0,0,0c0,0,0,0,0-0.1c0,0,0,0,0,0c0-0.1-0.1-0.1-0.1-0.2c0,0,0,0,0,0c-2.3-3.9-4.8-8-7.4-12.2
		C95.7,442.2,173.3,452,265,452c91,0,168.5-9.7,194.7-13.4C424.1,496.8,412,521.7,410.5,555.7z M471.1,420c-3,4.9-5.9,9.6-8.7,14.1
		C437,437.7,357.1,448,265,448c-92.1,0-172-10.3-197.4-13.9c-2.8-4.5-5.7-9.2-8.7-14.1c-0.3-0.5-0.5-1-0.7-1.3
		c4.8,0.7,95.8,14.7,206.8,14.7c0.1,0,0.3,0,0.4,0c0.1,0,0.3,0,0.4,0c107.8,0,195.8-13.1,205.9-14.6c-0.1,0.2-0.2,0.5-0.4,0.8
		L471.1,420z"/>
</g>
</svg>
