<?xml version="1.0" encoding="utf-8"?>
<!-- Generator: Adobe Illustrator 19.2.0, SVG Export Plug-In . SVG Version: 6.00 Build 0)  -->
<svg version="1.1" id="Layer_1" xmlns="http://www.w3.org/2000/svg" xmlns:xlink="http://www.w3.org/1999/xlink" x="0px" y="0px"
	 viewBox="0 0 243 462.7" style="enable-background:new 0 0 243 462.7;" xml:space="preserve">
<title>icon</title>
<path d="M51.7,358.9c0.3,2.3,0.7,4.6,1.3,6.9c0.2,0.5,0.3,1,0.5,1.6s0.4,1,0.6,1.5c0.1,0.2,0.2,0.4,0.4,0.8s0.3,0.6,0.4,0.8l0.2,0.4
	l0.3,0.3c2.1,2.1,8.3,3.8,16.9,5.2c0.7,0.9,1.3,1.9,1.9,2.9c0.5,0.9,0.9,2,1.2,3v0.1v0.1c0.9,2.5,1.5,5.1,1.9,7.7
	c0.6,3.4,1,7.3,1.4,11.4c0.3,4.5,0.6,9.3,0.7,13.9c0.1,5.2,0.2,10.3,0.1,14.9v1.6h0.2l12.5,13.5H92l4.2,3.7l11,9.6l0,0l0.3,0.2
	c2,1.7,4,3.4,14.3,3.8h0.2c10.3-0.4,12.4-2.1,14.3-3.8l0.3-0.2l0,0l11-9.6l4.2-3.7h-0.1l12.8-13.5h-0.2v-1.6
	c-0.1-4.6-0.1-9.7,0.1-14.9c0.1-4.6,0.4-9.4,0.7-13.9c0.4-4.1,0.8-8,1.4-11.4c0.4-2.6,1-5.2,1.9-7.7v-0.1v-0.1c0.2-1,0.6-2.1,1.1-3
	c0.4-0.8,0.9-1.5,1.4-2.3c8.1-1.3,14-3.1,16.4-5.5l0.3-0.3l0.2-0.3c0.2-0.3,0.4-0.6,0.5-1l0,0c0.2-0.4,0.4-0.7,0.5-1
	c0.2-0.5,0.4-1,0.6-1.5c0.2-0.5,0.4-1,0.5-1.6c0.3-1.2,0.6-2.4,0.8-3.7c0.1-0.9,0.3-1.8,0.4-2.8c-10.1,4-38.1,5.8-66.6,5.8
	C93.9,365.1,62.3,363,51.7,358.9z M133.7,456.2l-0.3,0.2c-1.4,1.2-2.9,2.5-11.6,2.8c-8.7-0.3-10.2-1.6-11.6-2.8l-0.3-0.2l-7-6.2
	l3.5,0.1c2.2,0.1,4.7,0.1,7.3,0.1s5.3,0,8.1,0s5.5,0,8.1,0s5.1-0.1,7.3-0.1l3.5-0.1L133.7,456.2z M165.1,378.1
	c-0.6,1.1-1.1,2.4-1.4,3.6c-0.9,2.6-1.5,5.3-2,8c-0.6,3.4-1,7.3-1.4,11.5c-0.4,4.4-0.6,9.1-0.7,13.8c-0.1,4.5-0.2,9-0.1,13.2
	l-1.7,0.1c-1.3,0.1-2.6,0.2-3.8,0.3c-1.6,0.1-3.2,0.2-4.8,0.3c-1.7,0.1-3.4,0.2-5,0.2c-1.9,0.1-3.7,0.1-5.4,0.2l-5.6,0.1
	c-2,0-3.9,0.1-5.8,0.1s-3.9,0-5.8,0s-3.8,0-5.8,0s-3.8,0-5.8-0.1l-5.6-0.1c-1.8-0.1-3.6-0.1-5.4-0.2c-1.6-0.1-3.3-0.1-5-0.2
	c-1.5-0.1-3.1-0.2-4.8-0.3l-3.7-0.3l-1.7-0.1c0-2.9,0-5.9,0-9c4.5,0.4,9.4,0.7,14.5,0.9c9.2,0.4,18.9,0.6,27.2,0.6V418
	c-8.4,0-18-0.2-27.1-0.6c-5.1-0.2-10.1-0.5-14.6-0.9c0-0.5,0-1,0-1.5c-0.1-2.2-0.2-4.4-0.3-6.6c4.6,0.4,9.6,0.7,14.8,1
	c9.2,0.4,18.9,0.6,27.2,0.6v-2.7c-8.4,0-18-0.2-27.1-0.6c-5.3-0.2-10.4-0.6-15.1-1c-0.1-1.5-0.2-3-0.3-4.5c-0.1-1.2-0.2-2.4-0.3-3.6
	c4.8,0.4,10.1,0.8,15.6,1c9.2,0.4,18.9,0.6,27.2,0.6v-2.7c-8.4,0-18-0.2-27.1-0.6c-5.7-0.3-11.1-0.6-16-1.1
	c-0.2-1.8-0.5-3.5-0.8-5.1c-0.2-1.1-0.4-2.1-0.6-3c5.2,0.5,11.1,0.9,17.2,1.2c9.2,0.4,18.9,0.6,27.2,0.6l0,0v-2.7
	c-8.4,0-18-0.2-27.1-0.6c-6.4-0.3-12.6-0.7-18-1.3c-0.2-0.8-0.5-1.5-0.7-2.2c-0.3-1.3-0.8-2.5-1.4-3.6c-0.2-0.4-0.4-0.7-0.6-1
	c15.5,1.8,31,2.6,46.6,2.6c13.6,0.1,27.2-0.5,40.8-2C165.3,377.8,165.2,377.9,165.1,378.1L165.1,378.1z"/>
<path d="M121.5,185.3c-35.5,0-70.9-3.3-105.8-9.8l-1.9-0.4l-1.4-0.3l-0.6-1.3C7.9,165.5,4.9,157,3,148.2
	C-11.7,82.8,29.4,17.8,94.9,3s130.5,26.4,145.2,91.9c3.9,17.6,3.9,35.8,0,53.3c-2,8.7-4.9,17.2-8.7,25.3l-0.6,1.3l-1.4,0.3l-1.9,0.4
	C192.5,182,157,185.2,121.5,185.3 M16.7,169.9c34.6,6.4,69.6,9.6,104.8,9.6c35.2,0,70.2-3.2,104.8-9.6l0.5-0.1
	c3.4-7.3,6-15,7.7-22.9c14-62.4-25.3-124.4-87.7-138.3S22.5,33.9,8.5,96.4c-3.7,16.7-3.7,34,0,50.6c1.8,7.9,4.4,15.5,7.7,22.9
	L16.7,169.9z"/>
<g>
	<polygon points="148.7,319 150.7,319 149.7,316.7 	"/>
	<path d="M226.8,180.4c-69.6,12.9-141,12.9-210.6,0l-3.3-0.6v3.4c0,17.8,6.1,28.4,12.3,39.3c3.3,5.4,6.1,11.1,8.4,16.9l0.1,0.1
		c12.7,29.4,14.9,69,16.4,96.6c0.4,7.5,0.8,14.2,1.3,19.5c7.4,4.4,40.7,6.7,73.2,6.7c30.5,0,60.1-2,67-6.2c0.5-5.4,0.9-12.2,1.4-20
		c1.5-27.5,3.7-67.2,16.4-96.6l0-0.1c2.3-5.9,5.2-11.5,8.4-16.9c6.2-10.9,12.3-21.5,12.3-39.3v-3.4L226.8,180.4z M94.2,324l0.1,0.2
		h-8.6l0.1-0.2v-0.4v-11.8v-0.3l-0.1-0.2h8.7l-0.1,0.2l-0.1,0.4v11.8h0L94.2,324z M109.9,324.2L109.9,324.2l0-0.1h0.1
		c0,0,0.1-0.1,0.1-0.1c0-0.2,0-0.4,0-0.6l-2.7-4.3v4.5l0.1,0.4l0.2,0.2h-8.6l0.1-0.2l0.1-0.4v-11.8l-0.1-0.3l-0.1-0.2h8.7l-0.1,0.2
		l-0.1,0.4v4.2l3.1-4.1c0-0.1,0.1-0.3,0.1-0.4c0-0.1-0.1-0.3-0.1-0.4h8.6l-3.8,5.3l4.5,7.2l0.3,0.3l0.4,0.2H110
		C109.9,324.1,109.9,324.2,109.9,324.2z M137.5,324.2h-15.2l0.1-0.2v-0.4v-11.8l-0.1-0.4l-0.2-0.3h15.1v4l-0.2-0.1h-0.4h-6.2v1.1
		h4.8l0,0l0.4-0.1l0.2-0.1v3.6l-0.3-0.2l-0.4-0.1h-4.8v1.2h6.3l0.4-0.1l0.2-0.2V324.2z M152.1,324.2c0.1-0.1,0.1-0.3,0.1-0.4
		c0-0.1,0-0.2,0-0.3l-0.6-1.7h-4l-0.7,1.7c0,0,0,0,0,0.1c0,0.2,0.1,0.3,0.2,0.5h-7.5c0.2-0.1,0.3-0.2,0.4-0.4c0-0.1,0.1-0.1,0.1-0.2
		l4.3-11.7l0,0c0-0.1,0-0.3,0-0.4c0-0.1-0.1-0.2-0.1-0.3h11.7c-0.1,0.1-0.1,0.1-0.2,0.3c0,0.1,0,0.3,0,0.4l5.1,12l0.2,0.3l0.2,0.2
		H152.1z"/>
</g>
</svg>
