<?xml version="1.0" encoding="utf-8"?>
<!-- Generator: Adobe Illustrator 21.0.0, SVG Export Plug-In . SVG Version: 6.00 Build 0)  -->
<svg version="1.1" id="Layer_1" xmlns="http://www.w3.org/2000/svg" xmlns:xlink="http://www.w3.org/1999/xlink" x="0px" y="0px"
	 viewBox="0 0 654.6 762.1" style="enable-background:new 0 0 654.6 762.1;" xml:space="preserve">
<style type="text/css">
	.st0{fill:#010101;}
</style>
<g>
	<path class="st0" d="M651.6,115.5c0-0.4,0-0.7,0-1.1v0c-0.1-1.5-0.3-2.8-0.7-4.1c-0.2-0.7-0.5-1.4-0.8-2.1
		c-2.2-4.7-6.9-8.2-15.1-11.3c-19.1-7.2-35.9-9.2-44.3-9.7c-0.1,0-0.2,0-0.4,0c-0.1-18-0.7-29.1-2-38.7c-0.4-3.4-0.9-6.5-1.5-9.7
		l-0.2-0.9c-0.1-0.6-0.3-1.2-0.4-1.8c-1.6-7.2-10.2-13.1-26.3-18.1c-12-3.7-28.2-6.8-45.7-8.8c-2.2-0.2-4.9-0.5-7.9-0.7
		C467.5,5.2,371,3,328,3h-0.8c-24.4,0-64.1,0.7-98.7,1.8c-21.6,0.6-58.1,1.9-79.5,3.8c-2.9,0.2-5.6,0.5-7.8,0.7
		c-17.5,1.9-33.7,5.1-45.7,8.8c-16,5-24.6,10.9-26.3,18.1c-0.9,4-1.6,8-2.1,12.1c0,0.2-0.1,0.5-0.1,0.7c-0.2,1.1-0.3,2.3-0.4,3.4
		c-1,8.9-1.4,19.3-1.5,36.4c-6.2,0.7-20.7,2.5-31.2,4.9c-1.8,0.4-3.6,0.8-5.4,1.3c-12.8,2.9-23,5.3-24.1,12.7
		c-0.1,0.9-0.3,2-0.5,3.2c-0.2,1.6-0.5,4.2-0.7,7c-0.1,1.6-0.2,3.1-0.2,4.4c-0.1,5.6,0.6,8.7,2.4,10.4c0,0,0.1,0.1,0.1,0.1l0.3,0.3
		c0.2,0.2,0.3,0.4,0.5,0.6c0.5,0.5,0.9,1,1.4,1.4c0.2,0.2,0.4,0.4,0.6,0.5c0.2,0.2,0.4,0.4,0.7,0.6c0.4,0.3,0.7,0.6,1.2,0.9
		c0.1,0.1,0.3,0.2,0.4,0.3c0.8,0.5,1.6,1,2.5,1.5c0.6,0.3,1.2,0.6,1.8,0.9c2.1,1,4.5,1.9,7.3,2.8c0.1,0,0.2,0.1,0.4,0.1
		c24,190.9,129.9,275.5,142,284.5l0.2,0.1c13.2,8.9,19.2,22.7,18.5,42.2l0,0.1l0,0.1c1.2,56.6,2.3,87.1,3.3,114
		c0.6,15.4,1.1,29.9,1.5,47c0.1,4.5,0.7,6.6,4,9.8c3.4,3.3,7.6,8.2,12,13.3c15.4,17.9,27.1,30.5,37,30.5h4.3v33.9h-12.9v37.2l2,0.4
		c2.8,0.6,5.6,1.1,8.3,1.5c4.3,0.7,8.6,1.1,12.9,1.4c2.6,0.2,5.2,0.2,7.8,0.2c9.7,0,19.5-1.1,29.2-3.1l2-0.4v-37.2h-12.9v-33.9h90.1
		v33.9h-12.9v37.2l2,0.4c0,0,0.1,0,0.1,0c1.3,0.3,2.5,0.5,3.8,0.8c0.5,0.1,1,0.2,1.5,0.3c0.8,0.1,1.5,0.3,2.3,0.4
		c0.2,0,0.4,0.1,0.6,0.1c0.7,0.1,1.5,0.2,2.2,0.3c0.1,0,0.3,0,0.4,0.1c3.4,0.5,6.9,0.8,10.3,1c2.6,0.2,5.2,0.2,7.8,0.2
		c8.5,0,17.1-0.8,25.6-2.4c1.2-0.2,2.4-0.5,3.6-0.7l2-0.4v-37.2H408v-33.9h6.7c10.1,0,22.4-13,38.8-31.5c4.2-4.7,8.2-9.2,11.4-12.4
		c3.3-3.2,3.9-5.4,4-9.8c0.4-15.4,1.1-28.5,1.8-42.4c1.4-27.6,3-59,3-118.7c0-20.4,5.9-33.8,18.5-42.3l0.2-0.1
		c13.1-9.9,43.1-39.3,72.1-87.3c35.5-58.6,58.4-124.7,68.2-196.6c8.8-3.2,17.9-8.4,18.4-19.1c0.1-1.2,0.1-2.3,0.2-3.3l0-0.4
		c0.1-0.7,0.1-1.3,0.1-1.9C651.5,117.3,651.6,116.4,651.6,115.5z M643.4,114.1c0,0.3,0.1,0.5,0.1,0.8c0,0.2,0,0.5,0,0.7
		c0,0.7,0,1.4-0.1,2.3c0,0.6-0.1,1.2-0.1,1.8l0,0.4c-0.1,1.2-0.2,2.4-0.2,3.6c-0.1,1.5-0.5,2.9-1.2,4.1c-3.5,3.5-10.1,6.3-20.6,9.2
		c-23.1,6.3-105.9,18.4-254.3,19.6v-13.8c185.9-1.5,252.6-19,255.3-19.8C630.4,121,638.3,118.4,643.4,114.1z M326.7,44.1
		c-156.2,0-229.4-1.1-243-11.4c10.5-6.5,31.6-12.2,58.2-15.5c13.7-1.7,44.5-3.3,86.7-4.5c34.6-1,74.2-1.7,98.5-1.8h0.8
		c46.2,0,154.2,2.5,185.2,6.3c25.8,3.2,46.4,8.6,57.2,14.9c-4.8,4.4-19.9,7.2-47.3,9C484.9,43.6,422.1,44.1,326.7,44.1z M76.5,40.7
		c0.4-1.9,1.7-3.7,3.9-5.6c5.9,5.2,21.1,8.2,49.7,10c38.4,2.5,101.2,3,196.6,3l0,0c0,0,0.1,0,0.1,0s0.1,0,0.1,0l0,0
		c95.4,0,158.2-0.5,196.6-3c29.8-1.9,45.1-5,50.4-10.8c2.8,2.1,4.5,4.2,4.9,6.3c0.1,0.6,0.3,1.2,0.4,1.9l0.2,0.9
		c0.2,1.3,0.5,2.7,0.7,4.1c-2.4,4.7-9.4,8.4-30,11.4c-33.9,5-100.7,7.1-223.6,7.1h-0.4c-101.7,0-166.5-1.5-203.9-4.8
		c-26.4-2.3-41.1-5.6-47.2-10.6C75.2,47.3,75.8,44,76.5,40.7z M73,92.4c0-17.7,0.4-28.4,1.3-37.2c6.7,4.2,19.9,7.6,47.4,10
		c38,3.4,101,4.9,204.2,4.9h0.4c123.1,0,190.1-2.1,224.2-7.1c17.1-2.5,25.8-5.7,30.2-9.8c1,9.2,1.4,20.3,1.5,38l0,2.9
		c-0.4,1.5-1.1,2.7-2.4,3.8c-3.8,3.5-12.5,6.2-26.4,8.3c-33.7,5.1-101.2,7.2-225.6,7.2h-0.4c-124.4,0-191.9-2.2-225.6-7.2
		c-14-2.1-22.6-4.8-26.4-8.3c-1.3-1.2-2-2.4-2.4-3.8L73,92.4z M30.3,102.7c1.8-0.4,3.6-0.8,5.4-1.3c10.2-2.4,25.1-4.2,30.8-4.8
		c2.4,7.5,10,12.8,34.2,16.4c34.1,5.1,101.8,7.3,226.6,7.3h0.4c124.8,0,192.6-2.2,226.6-7.3c25.8-3.9,32.8-9.6,34.6-17.9
		c0.6,0,0.9,0,1,0c7.9,0.5,23.9,2.4,42,9.2c4.8,1.8,8.1,3.8,9.8,5.8c-4.3,4.2-12.4,6.9-20.5,9.1c-23.1,6.3-106.1,18.4-254.7,19.6
		c-0.2,0-0.3,0-0.4,0c-0.1-0.5-0.4-0.9-0.9-1.2l-7.5-4.7c-0.3-0.2-0.7-0.3-1.1-0.3h-20.4c-0.6,0-1.2,0.3-1.5,0.7l-3.9,4.6
		c-0.2,0.2-0.3,0.5-0.4,0.8c-160.2-0.4-214.7-8.2-258.6-14.5c-3.8-0.6-7.6-1.1-11.3-1.6c-31.9-4.4-44-10.4-48.4-13.7
		c0-0.1,0-0.2,0.1-0.3C13.1,106.7,23.9,104.2,30.3,102.7z M362.3,140.6v12.8l-4.5-3.2c-0.3-0.2-0.7-0.4-1.2-0.4h-20.4
		c-0.6,0-1.3,0.3-1.6,0.8l-0.2,0.3v-10.7l2.8-3.4h18.9L362.3,140.6z M11.3,126.4c-0.1-0.8-0.2-2.1-0.2-4.2c0-1.2,0.1-2.5,0.2-4
		c0.1-1.7,0.3-3.3,0.4-4.7c6.6,4.1,20.2,9.3,48.4,13.2c3.7,0.5,7.5,1.1,11.3,1.6c43.9,6.3,98.5,14.2,258.9,14.5v13.8
		c-159.9-0.4-214.4-8.2-258.2-14.5c-3.9-0.6-7.6-1.1-11.4-1.6C21.5,135.3,13.8,129.3,11.3,126.4z M237.3,723.3h3.6v28.8
		c-1.2-0.2-2.4-0.4-3.6-0.7V723.3z M289.6,723.3v28.2c-10.5,2.1-21.2,2.9-31.7,2.5v-30.7h23.8H289.6z M261.8,718.3v-32.6h14.8v32.6
		H261.8z M367.3,723.3v28.8c-0.5-0.1-1-0.2-1.5-0.3c-0.4-0.1-0.8-0.1-1.2-0.2c-0.3-0.1-0.6-0.1-0.9-0.2v-28.2H367.3z M416,723.3
		v28.2c-0.2,0-0.4,0.1-0.6,0.1c-0.9,0.2-1.8,0.3-2.6,0.5c-0.4,0.1-0.9,0.2-1.3,0.2c-1,0.2-2.1,0.3-3.1,0.5c-0.3,0-0.5,0.1-0.8,0.1
		c-1.2,0.2-2.5,0.3-3.7,0.4c-0.6,0.1-1.3,0.1-1.9,0.2c-0.6,0.1-1.3,0.1-1.9,0.2c-0.7,0.1-1.5,0.1-2.2,0.2c-0.5,0-1,0.1-1.4,0.1
		c-0.8,0-1.7,0.1-2.5,0.1c-0.3,0-0.6,0-1,0c-2.8,0.1-5.7,0-8.5-0.1v-30.7H408H416z M388.2,718.3v-32.6H403v32.6H388.2z M447.6,647.6
		c-10.2,11.5-25.5,28.8-32.8,28.8H241c-7,0-21.4-16.7-30.9-27.8c-3.1-3.7-6.2-7.1-8.9-10.1c22.4,4,64.2,5.9,126.9,6
		c66.3-0.1,107.5-2.3,128.5-6.9C453.8,640.6,450.8,644,447.6,647.6z M557.7,335.7c-28.4,46.8-57.3,75.4-70,85
		c-14.8,10-21.9,26-21.9,48.9c0,59.6-1.6,90.8-3,118.3c-0.7,13.9-1.4,27.1-1.8,42.6c0,1.3-0.1,2-0.2,2.5l-0.1-0.5
		c-18.7,5.3-60.8,7.9-132.5,8c-68.2-0.1-111.3-2.4-131.6-7c-0.3-0.6-0.4-1.3-0.4-3c-0.4-17.2-1-31.7-1.5-47.1
		c-1-26.9-2.1-57.3-3.3-113.8c0.8-22.1-6.6-38.5-21.9-48.9c-12.2-9.2-116.2-92.6-139.1-281.5c7.2,1.8,16.8,3.7,29.8,5.5
		c3.8,0.5,7.5,1.1,11.4,1.6c44,6.3,98.6,14.1,259.1,14.5c0,0,0,0,0,0c1,0,1.9-0.4,2.6-1.1c0.4-0.4,0.7-0.9,0.9-1.5l3.2-4.5H356
		l7.1,5.1c0.2,0.1,0.4,0.2,0.6,0.3c0.1,0.2,0.2,0.3,0.4,0.5c0.7,0.7,1.6,1.1,2.6,1.1c0,0,0,0,0,0c186.2-1.5,252.9-19,255.7-19.7
		c0.9-0.2,1.8-0.5,2.7-0.7C615.5,211.8,592.9,277.5,557.7,335.7z"/>
	<path class="st0" d="M240.4,569.1h172.5v-61.9H240.4V569.1z M326.6,510.1c46.5,0,84.2,12.6,84.2,28.2c0,15.6-37.7,28.2-84.2,28.2
		c-46.5,0-84.2-12.6-84.2-28.2C242.4,522.7,280.1,510.1,326.6,510.1z"/>
	<path class="st0" d="M306.6,547.7L306.6,547.7C306.6,547.7,306.6,547.7,306.6,547.7z"/>
	<path class="st0" d="M288.2,547.4l-0.2,0.3h14.7l-0.2-0.3l-0.1-0.6v-7.7l4.6,7.3c0,0,0.2,0.5,0.1,1c0,0.1-0.1,0.3-0.2,0.3h17.8
		l-0.6-0.3l-0.6-0.4l-7.7-12.3l6.4-9.1h-14.6c0,0,0.2,0.4,0.2,0.6c0,0.4-0.1,0.7-0.1,0.7l-5.3,7v-7.2l0.1-0.6l0.2-0.3H288l0.2,0.3
		l0.1,0.6v20.1L288.2,547.4z"/>
	<path class="st0" d="M306.6,547.8c0,0,0,0,0.1-0.1L306.6,547.8C306.6,547.8,306.6,547.8,306.6,547.8z"/>
	<polygon class="st0" points="265.7,547.4 265.5,547.8 280.2,547.9 279.9,547.5 279.8,546.8 279.8,526.7 279.9,526.1 280.2,525.8 
		265.5,525.8 265.7,526.1 265.7,526.6 265.7,546.7 	"/>
	<polygon class="st0" points="328,547.4 327.7,547.9 353.5,547.9 353.5,540.9 353.1,541.2 352.3,541.4 341.7,541.4 341.7,539.3 
		349.9,539.3 350.5,539.5 350.9,539.7 350.9,533.5 350.5,533.8 349.9,533.9 341.7,533.9 341.7,532.1 352.3,532.1 353,532.1 
		353.4,532.3 353.4,525.6 327.7,525.5 328,526 328.1,526.6 328.1,546.8 	"/>
	<path class="st0" d="M369.7,546.9c0-0.2,0.1-0.2,0.1-0.2l1.1-2.9h6.9l1,2.9c0,0,0,0.3,0.1,0.5c0,0.2-0.2,0.7-0.2,0.7l15.7,0
		l-0.4-0.3l-0.3-0.4l-8.7-20.4c0,0-0.1-0.4,0-0.7c0-0.3,0.2-0.4,0.2-0.4h-19.9c0,0,0.2,0.1,0.2,0.4c0,0.3,0,0.7,0,0.7l-7.4,19.9
		c0,0,0,0-0.1,0.4c-0.2,0.5-0.7,0.7-0.7,0.7h12.7C369.9,547.6,369.7,547.3,369.7,546.9z M374.3,535l1.8,3.9h-3.5L374.3,535z"/>
</g>
</svg>
