<?xml version="1.0" encoding="utf-8"?>
<!-- Generator: Adobe Illustrator 21.0.0, SVG Export Plug-In . SVG Version: 6.00 Build 0)  -->
<svg version="1.1" id="Layer_1" xmlns="http://www.w3.org/2000/svg" xmlns:xlink="http://www.w3.org/1999/xlink" x="0px" y="0px"
	 viewBox="0 0 798.3 1417.3" style="enable-background:new 0 0 798.3 1417.3;" xml:space="preserve">
<!--
<style type="text/css">
	.st0{opacity:0.16;fill:url(#SVGID_1_);}
	.st1{opacity:0.16;fill:url(#SVGID_2_);}
	.st2{opacity:0.5;fill:url(#SVGID_3_);}
	.st3{fill:url(#light);}
-->
<style type="text/css">
	.base{opacity:0.5;fill:url(#SVGID_1_);}
	.base2{opacity:0.16;fill:url(#SVGID_2_);}
	.fitting{opacity:0.16;fill:url(#SVGID_3_);}

	
	.pair {
		animation-name: toggles;
		animation-delay: 3s;
		animation-duration: 14.2s;
		animation-iteration-count: infinite;
		fill:url(#light);
		opacity: 0;
	}
	
	@keyframes toggles {
		1%,	/* low toggle 1 */
		6%,	/* low toggle 1 */
		10%,	/* low toggle 2 */
		15%,	/* low toggle 2 */
		18%,	/* low toggle 3 */
		23%,	/* low toggle 3 */
		27%,	/* low toggle 4 */
		32%,	/* low toggle 4 */
		35%,	/* low toggle 5 */
		40%,	/* low toggle 5 */
		44%,	/* low toggle 6 */
		48%	/* low toggle 6 */
		{
			opacity: 0;
		}
		3%,	/* high toggle 1 */
		5%,	/* high toggle 1 */
		11%,	/* high toggle 2 */
		13%,	/* high toggle 2 */
		20%,	/* high toggle 3 */
		22%,	/* high toggle 3 */
		28%,	/* high toggle 4 */
		30%,	/* high toggle 4 */
		36%,	/* high toggle 5 */
		39%,	/* high toggle 5 */
		45%,	/* high toggle 6 */
		47%	/* high toggle 6 */
		{
			opacity: 1;
		}
	}
</style>
<path d="M672.2,123.2C599.3,50.3,502.3,10.1,399.1,10.1C296,10.1,199,50.3,126,123.2C53.1,196.1,12.9,293.1,12.9,396.3
	c0,57.2,12.2,112.3,36.4,163.7c0.2,0.4,0.7,1.4,5.3,9.5l0.4,0.7l-0.4,2c0.5,0.1,1.1,0.2,1.7,0.3l1,1.8c0.8,1.5,1.5,2.6,1.7,3
	c28.8,55.6,93.6,218.5,113.3,299.3c20,82,22.9,111.6,23.9,185.9c0,0.6,0.2,1.7,0.5,2.8c0.1,0.5,0.4,1.3,0.8,2.2
	c2.9,5.4,17.9,28.5,35,37.9c0,0.1,0.1,0.2,0.2,0.3c0,0.1,0.1,0.2,0.2,0.3l0.2,0.3c0.5,0.9,1.2,2.3,2.2,4.2c0.1,0.3,0.3,0.6,0.4,0.9
	l0.2,0.3c0.3,0.6,0.6,1.2,0.9,1.8l0,0c4.3,8.6,11.8,25.1,14.3,38.4c4,21.7,8.1,69.4,8.1,118.5v24.2c0,0.2,0,0.4,0,0.7
	c0.1,0.9,0.4,3.7,1.4,5.7c0,0,0,0,0,0l0,0c0,0,0,0,0,0.1l0.7,1.5l0.4,0.2c2.1,2.8,6.9,9,12.7,16.5l0,0l0.1,0.1l0,0
	c0,0,0.1,0.1,0.1,0.1l0,0c0,0.1,0.1,0.1,0.1,0.2c0.5,0.7,1.1,1.3,1.6,2c0,0,0.1,0.1,0.1,0.1c0.6,0.7,1.1,1.4,1.7,2.1
	c0,0,0.1,0.1,0.1,0.1c1.8,2.3,3.8,4.6,5.7,7c0.1,0.1,0.2,0.2,0.3,0.3c0.6,0.7,1.2,1.4,1.7,2.1c0.1,0.1,0.2,0.3,0.3,0.4
	c0.6,0.7,1.2,1.4,1.7,2.1c0.1,0.1,0.2,0.2,0.2,0.3c0.6,0.7,1.2,1.4,1.8,2.1c0.1,0.2,0.3,0.3,0.4,0.5c0.5,0.6,1.1,1.3,1.6,1.9
	c0.2,0.2,0.4,0.4,0.6,0.6c0.5,0.6,1,1.2,1.5,1.7c0.3,0.4,0.6,0.7,0.9,1c0.4,0.4,0.8,0.8,1.1,1.3c0.4,0.4,0.7,0.8,1,1.1
	c0.3,0.4,0.7,0.7,1,1.1c0.4,0.4,0.7,0.8,1.1,1.1c0.3,0.3,0.6,0.7,1,1c0.4,0.4,0.8,0.8,1.1,1.2c0.3,0.3,0.6,0.6,0.8,0.9
	c0.6,0.6,1.1,1.2,1.7,1.7c0.1,0.1,0.1,0.1,0.2,0.2c0.6,0.6,1.2,1.2,1.9,1.8c1.6,1.5,3.3,3.2,5.3,5.4c1.4,1.5,2.9,3.1,4.4,4.7
	l2.4,2.6l0,0l0,0c17,18.4,38.4,38,77.4,39.5v0.1h4.7l4.3,0v-0.1c39-1.5,60.4-21.1,77.4-39.5l-3.2-3l3.2,2.9l2.4-2.6
	c1.5-1.7,3-3.3,4.4-4.8c2.1-2.2,3.8-4,5.3-5.4c9.7-9.2,22.6-24.8,31.7-36.2l-3.4-2.7l3.4,2.7c6.2-7.9,11.3-14.5,13.2-17l0.1-0.2
	c0,0,0,0,0,0l0.3-0.5c1.1-1.8,1.5-4.6,1.6-6.1c0-0.3,0-0.6,0-0.8v-24.2c0-49.1,4.1-96.8,8.1-118.5c2.5-13.6,10.5-30.8,15-39.8
	l0.1-0.1l0,0c0-0.1,0.1-0.2,0.1-0.2l0.8-1.5l0,0l0.1-0.1c0.1-0.2,0.2-0.3,0.3-0.5l0.2-0.4l0-0.1l0.1-0.3c0.1-0.2,0.2-0.3,0.2-0.5
	l0.5-0.9c0.3-0.5,0.5-0.9,0.6-1.2c18.1-10,30.9-32.1,34.4-38.7c0.4-0.7,0.6-1.5,0.9-2.2c0.3-1.1,0.4-2.3,0.5-3
	c1-74.1,3.9-103.7,23.9-185.8c20-81.8,87.2-250.6,115.2-302.9l0-0.1c0.1-0.1,0.2-0.4,0.4-0.8l0.1-0.2c1.1-2.1,5.2-10.4,5.2-10.5
	c24.8-52,37.4-107.8,37.4-165.8C785.3,293.1,745.1,196.1,672.2,123.2z M400.3,1399.2l-0.1,0l0,0v-0.3c-36.2,0-56.6-16.7-72.5-33.4
	c20.1,0.6,44.1,0.9,72.5,0.9c28.5,0,52.6-0.4,72.6-0.9C456.8,1382.3,436.3,1399.1,400.3,1399.2z M531.8,1297.4
	c-0.6,0.8-1.5,1.9-2.5,3.3c-24.5,1.6-65.9,3.5-129.2,3.5c-63.3,0-104.6-1.8-129.1-3.5c-1-1.3-1.9-2.5-2.6-3.4l-0.2-0.6
	c-0.1-0.6-0.3-1.4-0.3-1.8v-24.2c0-7.3-0.1-14.6-0.3-21.7c7.2,0.3,15.1,0.6,23.8,0.9c25.8,0.8,54.6,1.2,85.6,1.2
	c2.4,0,4.3-1.9,4.3-4.3c0-2.4-1.9-4.3-4.3-4.3c-30.9,0-59.6-0.4-85.4-1.2c-8.8-0.3-16.9-0.6-24.2-0.9c-0.4-12.4-1-24.4-1.8-35.5
	c7.9,0.4,16.5,0.7,25.8,1c25.8,0.8,54.6,1.2,85.6,1.2c2.4,0,4.3-1.9,4.3-4.3c0-2.4-1.9-4.3-4.3-4.3c-30.9,0-59.6-0.4-85.4-1.2
	c-9.6-0.3-18.5-0.6-26.6-1c-1.1-13.9-2.4-26.1-3.8-35.7c32.5,1.6,71.4,2.4,115.8,2.4c2.4,0,4.3-1.9,4.3-4.3c0-2.4-1.9-4.3-4.3-4.3
	c-45.1,0-84.5-0.8-117.2-2.4c-0.1-0.3-0.1-0.7-0.2-1c-2.5-13.2-9.3-28.9-14.8-40c-0.2-0.3-0.3-0.7-0.5-1l0,0c-0.3-0.5-0.5-1-0.8-1.5
	c17.7,1.7,65.6,5.1,156.4,5.1c90.9,0,138.7-3.5,156.4-5.1c0,0.1-0.1,0.1-0.1,0.2c0,0,0,0.1,0,0.1c-4.8,9.5-13.1,27.5-15.9,42.3
	c-4.1,22.1-8.3,70.5-8.3,120.1l0,24.1c0,0.5-0.2,1.6-0.3,2.2L531.8,1297.4z M563,1098.7c-5.8,0.7-52.1,5.8-162.8,5.8c0,0,0,0,0,0
	v-0.3c-108.9,0-155.5-5-162.7-5.8l0.1-0.2c-12.1-6.1-24.6-22.4-30.1-31c16.9,2.5,65.7,7.3,191.7,7.4l0-2.2v2.2h1
	c126.2,0,175-4.9,191.8-7.4C587.3,1075.1,576.6,1091.3,563,1098.7z M618.5,874.5c-20.2,82.9-23.2,112.8-24.1,187.6
	c0,0.1,0,0.2,0,0.4c-13.1,2.3-59,7.8-194.2,7.8h-1c-135.2,0-181.1-5.5-194.2-7.8c0-0.1,0-0.2,0-0.2c0,0,0,0,0,0
	c-1-74.9-3.9-104.8-24.1-187.7C161,793.6,96.3,631,67.2,574.2c31.4,4.4,117.6,12.4,331,12.4h1c216.9,0,302.3-8.2,333-12.7
	C702.8,631.1,638.1,794.3,618.5,874.5z M740.1,558.3c0,0-3.7,7.6-5,10.1l-0.4,0.7c0,0,0,0,0,0.1c-27.7,4.4-110.9,13.1-335.5,13.1h-1
	c-221.1,0-305.3-8.5-333.6-12.8l-2.4-4.3c-2-3.5-4.7-8.3-5-8.8c-23.6-50.3-35.5-104.2-35.5-160.1c0-100.8,39.3-195.6,110.6-266.9
	C203.5,58,298.3,18.8,399.1,18.8C500,18.8,594.8,58,666.1,129.3c71.3,71.3,110.6,166.1,110.6,266.9
	C776.6,453,764.3,507.5,740.1,558.3z"/>
<linearGradient id="SVGID_1_" gradientUnits="userSpaceOnUse" x1="67.1828" y1="822.1046" x2="732.2299" y2="822.1046">
	<stop  offset="1.362179e-02" style="stop-color:#121212"/>
	<stop  offset="0.1363" style="stop-color:#7E7E7E"/>
	<stop  offset="0.2282" style="stop-color:#C9C9C9"/>
	<stop  offset="0.2704" style="stop-color:#E6E6E6"/>
	<stop  offset="0.2745" style="stop-color:#EBEBEB"/>
	<stop  offset="0.2903" style="stop-color:#F6F6F6"/>
	<stop  offset="0.3125" style="stop-color:#FDFDFD"/>
	<stop  offset="0.3742" style="stop-color:#FFFFFF"/>
	<stop  offset="0.4405" style="stop-color:#EEEEEE"/>
	<stop  offset="0.5724" style="stop-color:#C1C1C1"/>
	<stop  offset="0.7576" style="stop-color:#787878"/>
	<stop  offset="0.9871" style="stop-color:#151515"/>
	<stop  offset="1" style="stop-color:#0F0F0F"/>
</linearGradient>
<path class="base" d="M732.2,574c-30.8,4.5-116.2,12.7-333,12.7h-1c-213.4,0-299.6-8-331-12.4C96.3,631,161,793.6,180.8,874.5
	c20.2,82.9,23.2,112.8,24.1,187.7c0,0,0,0,0,0c0,0,0,0.1,0,0.2c13.1,2.3,59,7.8,194.2,7.8h1c135.2,0,181.1-5.5,194.2-7.8
	c0-0.2,0-0.3,0-0.4c1-74.8,3.9-104.7,24.1-187.6C638.1,794.3,702.8,631.1,732.2,574z"/>
<linearGradient id="SVGID_2_" gradientUnits="userSpaceOnUse" x1="207.4393" y1="1085.8801" x2="591.9481" y2="1085.8801">
	<stop  offset="1.362179e-02" style="stop-color:#121212"/>
	<stop  offset="0.1363" style="stop-color:#7E7E7E"/>
	<stop  offset="0.2282" style="stop-color:#C9C9C9"/>
	<stop  offset="0.2704" style="stop-color:#E6E6E6"/>
	<stop  offset="0.2745" style="stop-color:#EBEBEB"/>
	<stop  offset="0.2903" style="stop-color:#F6F6F6"/>
	<stop  offset="0.3125" style="stop-color:#FDFDFD"/>
	<stop  offset="0.3742" style="stop-color:#FFFFFF"/>
	<stop  offset="0.4405" style="stop-color:#EEEEEE"/>
	<stop  offset="0.5724" style="stop-color:#C1C1C1"/>
	<stop  offset="0.7576" style="stop-color:#787878"/>
	<stop  offset="0.9871" style="stop-color:#151515"/>
	<stop  offset="1" style="stop-color:#0F0F0F"/>
</linearGradient>
<path class="base2" d="M591.9,1067.2c-16.8,2.5-65.6,7.3-191.8,7.4h-1v-2.2l0,2.2c-125.9,0-174.8-4.8-191.7-7.4
	c5.5,8.6,18,24.8,30.1,31l-0.1,0.2c7.1,0.8,53.8,5.8,162.7,5.8v0.3c0,0,0,0,0,0c110.8,0,157.1-5.1,162.8-5.8
	C576.6,1091.3,587.3,1075.1,591.9,1067.2z"/>
<linearGradient id="SVGID_3_" gradientUnits="userSpaceOnUse" x1="243.6966" y1="1206.1708" x2="556.5732" y2="1206.1708">
	<stop  offset="1.362179e-02" style="stop-color:#121212"/>
	<stop  offset="3.422726e-02" style="stop-color:#444444"/>
	<stop  offset="5.551940e-02" style="stop-color:#6F6F6F"/>
	<stop  offset="7.846995e-02" style="stop-color:#969696"/>
	<stop  offset="0.1028" style="stop-color:#B7B7B7"/>
	<stop  offset="0.1288" style="stop-color:#D1D1D1"/>
	<stop  offset="0.1573" style="stop-color:#E6E6E6"/>
	<stop  offset="0.1893" style="stop-color:#F4F4F4"/>
	<stop  offset="0.228" style="stop-color:#FCFCFC"/>
	<stop  offset="0.2914" style="stop-color:#FFFFFF"/>
</linearGradient>
<path class="fitting" d="M525.4,1301c0.5,0,1-0.1,1.5-0.1c0.8-0.1,1.6-0.1,2.4-0.2c1.1-1.4,1.9-2.5,2.5-3.3l0.1-0.3
	c0.2-0.6,0.3-1.7,0.3-2.2l0-24.1c0-49.6,4.2-98,8.3-120.1c2.7-14.8,11.1-32.7,15.9-42.3c0,0,0-0.1,0-0.1c0-0.1,0.1-0.1,0.1-0.2
	c-17.7,1.7-65.6,5.1-156.4,5.1c-90.9,0-138.7-3.5-156.4-5.1c0.2,0.5,0.5,1,0.8,1.5l0,0c0.2,0.3,0.3,0.7,0.5,1
	c5.5,11.1,12.3,26.8,14.8,40c0.1,0.3,0.1,0.7,0.2,1c32.7,1.6,72.1,2.4,117.2,2.4c2.4,0,4.3,1.9,4.3,4.3c0,2.4-1.9,4.3-4.3,4.3
	c-44.4,0-83.3-0.8-115.8-2.4c1.4,9.6,2.7,21.8,3.8,35.7c8.1,0.4,17,0.7,26.6,1c25.8,0.8,54.5,1.2,85.4,1.2c2.4,0,4.3,1.9,4.3,4.3
	c0,2.4-1.9,4.3-4.3,4.3c-31,0-59.8-0.4-85.6-1.2c-9.3-0.3-18-0.6-25.8-1c0.8,11.1,1.4,23.1,1.8,35.5c7.3,0.3,15.4,0.6,24.2,0.9
	c25.8,0.8,54.5,1.2,85.4,1.2c2.4,0,4.3,1.9,4.3,4.3c0,2.4-1.9,4.3-4.3,4.3c-31,0-59.8-0.4-85.6-1.2c-8.7-0.3-16.6-0.6-23.8-0.9
	c0.2,7.2,0.3,14.4,0.3,21.7v24.2c0,0.3,0.1,1.1,0.3,1.8l0.2,0.6c0.7,0.9,1.6,2.1,2.6,3.4c2.2,0.1,4.6,0.3,7.1,0.4c0.1,0,0.2,0,0.3,0
	c0.7,0,1.4,0.1,2.1,0.1c0.2,0,0.4,0,0.6,0c0.6,0,1.3,0.1,2,0.1c0.3,0,0.5,0,0.8,0c0.6,0,1.2,0.1,1.8,0.1c0.4,0,0.8,0,1.1,0.1
	c0.6,0,1.2,0.1,1.8,0.1c0.4,0,0.8,0,1.2,0.1c0.6,0,1.2,0.1,1.9,0.1c0.4,0,0.8,0,1.3,0.1c0.6,0,1.2,0.1,1.8,0.1c0.5,0,0.9,0,1.4,0.1
	c0.6,0,1.2,0.1,1.8,0.1c0.5,0,1,0,1.5,0.1c0.6,0,1.2,0.1,1.8,0.1c0.6,0,1.1,0,1.7,0.1c0.6,0,1.2,0,1.8,0.1c0.6,0,1.1,0,1.7,0.1
	c0.6,0,1.3,0,1.9,0.1c0.6,0,1.1,0,1.7,0.1c0.7,0,1.3,0,2,0.1c0.6,0,1.2,0,1.9,0.1c0.7,0,1.3,0,2,0.1c0.6,0,1.3,0,1.9,0.1
	c0.7,0,1.4,0,2.1,0.1c0.6,0,1.3,0,1.9,0.1c0.7,0,1.4,0,2.2,0.1c0.7,0,1.3,0,2,0.1c0.7,0,1.4,0,2.1,0.1c0.7,0,1.4,0,2.2,0.1
	c0.7,0,1.5,0,2.2,0.1c0.7,0,1.5,0,2.2,0.1c0.7,0,1.5,0,2.2,0.1c0.8,0,1.6,0,2.4,0.1c0.7,0,1.5,0,2.2,0c0.8,0,1.6,0,2.5,0.1
	c0.7,0,1.5,0,2.3,0c0.8,0,1.6,0,2.5,0c0.8,0,1.6,0,2.4,0c0.8,0,1.7,0,2.6,0c0.8,0,1.6,0,2.3,0c0.9,0,1.8,0,2.7,0c0.8,0,1.6,0,2.4,0
	c0.9,0,1.8,0,2.6,0c0.9,0,1.7,0,2.6,0c0.9,0,1.8,0,2.7,0c0.8,0,1.7,0,2.5,0c1,0,2.1,0,3.1,0c0.8,0,1.5,0,2.3,0c1.1,0,2.2,0,3.2,0
	c0.8,0,1.6,0,2.4,0c1.1,0,2.3,0,3.4,0c0.8,0,1.5,0,2.3,0c1.3,0,2.6,0,3.9,0c0.7,0,1.3,0,2,0c2,0,4,0,6,0c2,0,4,0,6,0
	c0.7,0,1.4,0,2.1,0c1.2,0,2.5,0,3.7,0c0.8,0,1.7,0,2.5,0c1.1,0,2.2,0,3.2,0c0.8,0,1.6,0,2.4,0c1.1,0,2.1,0,3.2,0c0.8,0,1.5,0,2.3,0
	c1.1,0,2.1,0,3.2,0c0.8,0,1.6,0,2.3,0c1,0,2,0,3,0c0.8,0,1.7,0,2.5,0c0.9,0,1.8,0,2.7,0c0.8,0,1.6,0,2.4,0c0.9,0,1.8,0,2.7,0
	c0.8,0,1.6,0,2.3,0c0.9,0,1.7,0,2.6,0c0.8,0,1.6,0,2.3,0c0.8,0,1.7,0,2.5,0c0.7,0,1.5,0,2.2,0c0.8,0,1.7,0,2.5-0.1
	c0.7,0,1.4,0,2.2,0c0.8,0,1.6,0,2.4-0.1c0.7,0,1.4,0,2.1-0.1c0.8,0,1.6,0,2.3-0.1c0.7,0,1.4,0,2.1-0.1c0.7,0,1.5,0,2.2-0.1
	c0.7,0,1.4,0,2.1-0.1c0.7,0,1.4,0,2.1-0.1c0.7,0,1.4,0,2.1-0.1c0.7,0,1.3,0,2-0.1c0.7,0,1.3,0,2-0.1c0.7,0,1.3,0,2-0.1
	c0.7,0,1.3,0,1.9-0.1c0.6,0,1.3,0,1.9-0.1c0.6,0,1.3,0,1.9-0.1c0.6,0,1.2,0,1.9-0.1c0.6,0,1.2,0,1.8-0.1c0.6,0,1.2,0,1.8-0.1
	c0.6,0,1.2,0,1.8-0.1c0.6,0,1.2-0.1,1.8-0.1c0.6,0,1.1,0,1.7-0.1c0.6,0,1.1,0,1.7-0.1c0.6,0,1.1,0,1.7-0.1c0.6,0,1.1-0.1,1.6-0.1
	c0.5,0,1.1-0.1,1.6-0.1c0.5,0,1,0,1.5-0.1c0.5,0,1.1-0.1,1.6-0.1c0.5,0,1-0.1,1.5-0.1c0.5,0,1-0.1,1.5-0.1c0.5,0,1-0.1,1.5-0.1
	c0.5,0,1-0.1,1.5-0.1c0.4,0,0.9,0,1.3-0.1c0.5,0,1-0.1,1.5-0.1c0.4,0,0.8,0,1.2-0.1c0.5,0,1-0.1,1.5-0.1c0.4,0,0.7,0,1.1-0.1
	c0.5,0,1-0.1,1.5-0.1C524.8,1301.1,525.1,1301,525.4,1301z"/>
<radialGradient id="light" cx="399.1232" cy="300.5384" r="333.084" gradientUnits="userSpaceOnUse">
	<stop  offset="0" style="stop-color:#FFFFE8"/>
	<stop  offset="1.299973e-03" style="stop-color:#FFFFE7"/>
	<stop  offset="1" style="stop-color:#FFD87F;stop-opacity:0.9"/>
</radialGradient>
<path class="pair" d="M776.6,396.3c0-100.8-39.3-195.6-110.6-266.9C594.8,58,500,18.8,399.1,18.8c-100.8,0-195.6,39.3-266.9,110.6
	C60.9,200.7,21.6,295.5,21.6,396.3c0,55.9,12,109.8,35.5,160.1c0.3,0.5,3,5.3,5,8.8l2.4,4.3c28.3,4.3,112.5,12.8,333.6,12.8h1
	c224.7,0,307.9-8.7,335.5-13.1c0,0,0,0,0-0.1l0.4-0.7c1.3-2.5,5-10.1,5-10.1C764.3,507.5,776.6,453,776.6,396.3z"/>
</svg>

