<?xml version="1.0" encoding="utf-8"?>
<!-- Generator: Adobe Illustrator 21.0.0, SVG Export Plug-In . SVG Version: 6.00 Build 0)  -->
<svg version="1.1" id="Layer_1" xmlns="http://www.w3.org/2000/svg" xmlns:xlink="http://www.w3.org/1999/xlink" x="0px" y="0px"
	 viewBox="0 0 1380.3 1376.2" style="enable-background:new 0 0 1380.3 1376.2;" xml:space="preserve">
<style type="text/css">
	.st0{fill:#1A1A18;}
</style>
<g>
	<path class="st0" d="M1380.3,1373.6l-4.2-4.2V0H0v1376.2h1376.2v-2.7l2.2,2.2L1380.3,1373.6z M110.5,108.5L16.2,14.2H1360
		l-94.4,94.4H110.5z M1260.5,115.6v1144.9H115.6V115.6H1260.5z M14.2,1360V16.2l94.4,94.4v1155.1L14.2,1360z M1267.6,110.5
		l94.4-94.4v1339.1l-94.4-94.4V110.5z M1362,1362H16.2l94.4-94.4h1157.1v-2.7l94.4,94.4V1362z"/>
	<path class="st0" d="M1255.6,120.6h-1135v1135h1135V120.6z M1252.8,1252.8H123.4V123.4h1129.4V1252.8z"/>
</g>
</svg>