<?xml version="1.0" encoding="utf-8"?>
<!-- Generator: Adobe Illustrator 21.0.0, SVG Export Plug-In . SVG Version: 6.00 Build 0)  -->
<svg version="1.1" id="Layer_1" xmlns="http://www.w3.org/2000/svg" xmlns:xlink="http://www.w3.org/1999/xlink" x="0px" y="0px"
	 viewBox="0 0 1417.3 669.3" style="enable-background:new 0 0 1417.3 669.3;" xml:space="preserve">
<g>
	<path d="M1398,335.9c-8.3-19.6-20.1-37.1-35.2-52.2c-15.1-15.1-32.6-26.9-52.2-35.2c-19.1-8.1-39.4-12.4-60.3-12.9v-9.5h-17.1
		v-62.5c0-7.8-6.3-14.1-14.1-14.1H767.1v17.9c0,4.1-3.3,7.4-7.4,7.4c-4.1,0-7.4-3.3-7.4-7.4v-17.9H640.5v17.9c0,4.1-3.3,7.4-7.4,7.4
		s-7.4-3.3-7.4-7.4v-17.9H418.7v17.9c0,4.1-3.3,7.4-7.4,7.4c-4.1,0-7.4-3.3-7.4-7.4v-17.9H171.5c-7.8,0-14.1,6.3-14.1,14.1v95h-6.7
		c-3.5,0-6.4,2.9-6.4,6.4v51.4c0,3.5,2.9,6.4,6.4,6.4h6.7V337c0,7.8,6.3,14.1,14.1,14.1h1047.7c7.8,0,14.1-6.3,14.1-14.1v-62.5h17.1
		v-9.4c34.6,0.9,67,14.8,91.6,39.4c25.4,25.4,39.5,59.3,39.5,95.3c0,36-14,69.8-39.5,95.3c-25.4,25.4-59.3,39.5-95.3,39.5H748.3
		v-76.6c0-4.1-3.4-7.5-7.5-7.5h-13.3v19.4c0,2.3-1.8,4.2-4,4.3c-1.1,0-2.2-0.4-3-1.1c-0.8-0.8-1.3-1.8-1.3-3v-19.5h-69.4
		c-4.1,0-7.5,3.4-7.5,7.5v182.8c0,4.1,3.4,7.5,7.5,7.5h69.4v-19.4c0-2.3,1.8-4.2,4-4.3c1.1,0,2.2,0.4,3,1.1c0.8,0.8,1.3,1.8,1.3,3
		v19.5h13.3c4.1,0,7.5-3.4,7.5-7.5V564h498.3c22.2,0,43.7-4.3,63.9-12.9c19.6-8.3,37.1-20.1,52.2-35.2
		c15.1-15.1,26.9-32.6,35.2-52.2c8.6-20.3,12.9-41.8,12.9-63.9C1410.9,377.6,1406.5,356.1,1398,335.9z M168.3,172.2h6.6v156.2h-6.6
		V172.2z M150.7,317.4c-0.5,0-1-0.4-1-1V265c0-0.5,0.4-1,1-1h6.7v53.3H150.7z M1222.3,337c0,1.7-1.4,3.1-3.1,3.1H171.5
		c-1.7,0-3.1-1.4-3.1-3.1v-3.1h12.1V166.7h-12.1v-3.1c0-1.7,1.4-3.1,3.1-3.1h221.4v6.9c0,10.1,8.2,18.4,18.4,18.4
		c10.1,0,18.4-8.2,18.4-18.4v-6.9h185.1v6.9c0,10.1,8.2,18.4,18.4,18.4c10.1,0,18.4-8.2,18.4-18.4v-6.9h89.9v6.9
		c0,10.1,8.2,18.4,18.4,18.4c10.1,0,18.4-8.2,18.4-18.4v-6.9h441.2c1.7,0,3.1,1.4,3.1,3.1V337z M1243,267.2h-9.8v-33.8h9.8V267.2z
		 M741,640.7c0,0.1-0.1,0.2-0.2,0.2h-6v-12.3c0-3.1-1.2-6-3.5-8.2c-2.2-2.2-5.2-3.3-8.3-3.2c-6.2,0.2-11,5.3-11,11.6v12.1h-62.1
		c-0.1,0-0.2-0.1-0.2-0.2V457.9c0-0.1,0.1-0.2,0.2-0.2H712v12.3c0,3.1,1.2,6,3.5,8.2c2.2,2.2,5.2,3.3,8.3,3.2
		c6.2-0.2,11-5.3,11-11.6v-12.1h6c0.1,0,0.2,0.1,0.2,0.2V640.7z M1392.9,461.6c-8,18.9-19.4,35.9-34,50.5
		c-14.6,14.6-31.6,26-50.5,34c-19.6,8.3-40.4,12.5-61.8,12.5H748.3V540h498.3c37.4,0,72.7-14.6,99.1-41.1
		c26.5-26.5,41.1-61.7,41.1-99.1c0-37.4-14.6-72.7-41.1-99.1c-25.6-25.6-59.4-40.1-95.5-41v-18.6c20.1,0.4,39.7,4.6,58.2,12.4
		c18.9,8,35.9,19.4,50.5,34c14.6,14.6,26,31.6,34,50.5c8.3,19.6,12.5,40.4,12.5,61.8C1405.4,421.2,1401.2,442,1392.9,461.6z"/>
	<rect x="721.2" y="517.4" width="4.4" height="66.3"/>
	<rect x="713.4" y="517.4" width="4.4" height="66.3"/>
	<rect x="697.9" y="517.4" width="4.4" height="66.3"/>
	<rect x="705.7" y="517.4" width="4.4" height="66.3"/>
</g>
</svg>
