<?xml version="1.0" encoding="utf-8"?>
<!-- Generator: Adobe Illustrator 21.0.0, SVG Export Plug-In . SVG Version: 6.00 Build 0)  -->
<svg version="1.1" id="Layer_1" xmlns="http://www.w3.org/2000/svg" xmlns:xlink="http://www.w3.org/1999/xlink" x="0px" y="0px"
	 viewBox="0 0 630.4 1417.3" style="enable-background:new 0 0 630.4 1417.3;" xml:space="preserve">
<style type="text/css">
	.st0{fill:none;stroke:#00FFFF;stroke-width:8;stroke-miterlimit:10;}
	.st1{fill:#0078CC;}
	.st2{fill:#FFFFFF;}
</style>
<style type="text/css">
	.pair {
		animation: pair 4s infinite;
	}
	.white {
		fill: rgb(255,255,255);
	}
	
	@keyframes pair {
		0%, 20%, 80%, 100% {
			fill: rgba(255,255,255,0);
		}
		40%, 60% {
			fill: #0078CC;
		}
	}
	
	.move {
		animation: move 4s infinite;
	}
	
	@keyframes move {
		0%, 20%, 80%, 100% {
			transform: translate3d(0px, 0px, 0px);
	        animation-timing-function: ease-in;
		}
	    40%, 60% {
	        transform: translate3d(0px, 140px, 0px);
	        animation-timing-function: ease-out;
	    }
	}
</style>
<g>
	<path d="M594.8,892.5l-12.7-164.7c0-65-27.8-126.2-78.2-172.1c-50.3-45.9-117.2-71.2-188.4-71.2c-71.1,0-138,25.3-188.4,71.2
		c-50.4,46-78.2,107.1-78.2,172.1L35.4,898.3c-1.3,9.6-2.1,19.4-2.3,29.2l0,0h0c-0.1,2.5-0.1,5-0.1,7.5v482.3h8V935
		c0-2.4,0-4.7,0.1-7.1l2.3-28.8c7.7-58,34.1-111.7,76.2-153.8c49-49,113.7-76.7,182.8-78.5v53.2h26.3v-53.2
		c69.1,1.7,133.8,29.4,182.8,78.5c40.7,40.7,66.7,92.3,75.4,148.2l0.4,5.8l0.4,0c1.6,11.8,2.4,23.7,2.4,35.8v482.3h8V935
		C598,920.6,596.9,906.5,594.8,892.5z M324.7,716.1h-18.3v-49.2c0.9,0,1.9,0,2.8,0h12.7c0.9,0,1.9,0,2.8,0V716.1z M306.6,658.8
		l1.7-42.7h14.5l1.7,42.7c-0.9,0-1.7,0-2.6,0h-12.7C308.3,658.8,307.4,658.8,306.6,658.8z M517.1,739.7
		c-50.6-50.6-117.4-79.1-188.7-80.8l-1.9-46.7h-22.2l-1.9,46.7c-71.3,1.7-138.1,30.2-188.7,80.8C83.5,770.1,61,806.4,47.6,846
		l9.3-117.7l0-0.3c0-62.8,26.8-121.9,75.6-166.4c48.9-44.6,113.8-69.1,183-69.1s134.1,24.5,183,69.1
		c48.8,44.5,75.6,103.5,75.6,166.4v0.2l9,116.9C569.7,805.8,547.3,769.9,517.1,739.7z"/>
	<path d="M455.1,1296.7c-40.3-31.1-88.6-47.6-139.6-47.6c-51,0-99.3,16.5-139.6,47.6c-39,30.1-67.8,72.8-80.9,120.1l10.7,3
		c12.5-45,39.8-85.6,77-114.3c38.4-29.6,84.3-45.3,132.9-45.3s94.5,15.7,132.9,45.3c37.2,28.7,64.5,69.3,77,114.3l10.7-3
		C522.9,1369.5,494.2,1326.9,455.1,1296.7z"/>
</g>
<path class="move" d="M315.5,426.2c-5.5,0-9.9-4.4-9.9-9.9V322c-24.5-4.7-42.6-26.3-42.6-51.6V86.3c0-29,23.6-52.5,52.5-52.5S368,57.4,368,86.3
	v184.1c0,25.2-18.1,46.9-42.6,51.6v94.3C325.4,421.8,321,426.2,315.5,426.2z M315.5,40.7c-25.2,0-45.6,20.5-45.6,45.6v184.1
	c0,22.8,17,42.2,39.6,45.2l3,0.4v100.3c0,1.7,1.4,3,3,3c1.7,0,3-1.4,3-3V316l3-0.4c22.6-3,39.6-22.4,39.6-45.2V86.3
	C361.1,61.2,340.7,40.7,315.5,40.7z M315.5,302.3c-17.6,0-31.9-14.3-31.9-31.9V86.3c0-17.6,14.3-31.9,31.9-31.9s31.9,14.3,31.9,31.9
	v184.1C347.4,288,333.1,302.3,315.5,302.3z M315.5,61.3c-13.8,0-25,11.2-25,25v184.1c0,13.8,11.2,25,25,25s25-11.2,25-25V86.3
	C340.5,72.5,329.3,61.3,315.5,61.3z"/>
<path  d="M315.5,548.6c-8.3,0-14.5,3.7-14.5,8.5c0,4.9,6.2,8.5,14.5,8.5c8.3,0,14.5-3.7,14.5-8.5C330,552.2,323.8,548.6,315.5,548.6z
	 M306,558.9h0.2c0-1.4,3.7-3.5,9.3-3.5s9.3,2.1,9.3,3.5h0.2c-1.7,1.5-5.2,2.8-9.5,2.8S307.7,560.4,306,558.9z"/>
<!--
<path class="pair" d="M306.6,658.8c0.9,0,1.7,0,2.6,0h12.7c0.9,0,1.7,0,2.6,0l-1.7-42.7h-14.5L306.6,658.8z"/>
<path class="pair" d="M306.3,666.8v49.2h18.3v-49.2c-0.9,0-1.9,0-2.8,0h-12.7C308.2,666.8,307.3,666.8,306.3,666.8z"/>
-->
<path class="pair" d="M315.5,555.4c-5.6,0-9.3,2.1-9.3,3.5H306c1.7,1.5,5.2,2.8,9.5,2.8s7.9-1.3,9.5-2.8h-0.2
	C324.8,557.5,321.1,555.4,315.5,555.4z"/>
<path class="move white" d="M361.1,270.4V86.3c0-25.2-20.5-45.6-45.6-45.6s-45.6,20.5-45.6,45.6v184.1c0,22.8,17,42.2,39.6,45.2l3,0.4
	v100.3c0,1.7,1.4,3,3,3c1.7,0,3-1.4,3-3V316l3-0.4C344.1,312.7,361.1,293.2,361.1,270.4z M315.5,302.3c-17.6,0-31.9-14.3-31.9-31.9
	V86.3c0-17.6,14.3-31.9,31.9-31.9s31.9,14.3,31.9,31.9v184.1C347.4,288,333.1,302.3,315.5,302.3z"/>
</svg>
