<svg id="Layer_1" data-name="Layer 1" xmlns="http://www.w3.org/2000/svg" viewBox="0 0 569.9 144.07"><title>icon</title><path d="M88.73,54.28H51.33V146.6H37.41V54.28H0V41.9H88.73V54.28Z" transform="translate(0 -2.53)"/><path d="M179.05,146.6H161L126,105H106.35V146.6H92.43V41.9h29.32a85,85,0,0,1,15.82,1.23A33.26,33.26,0,0,1,149,47.53a26.44,26.44,0,0,1,8.89,9q3.2,5.45,3.2,13.82,0,11.32-5.7,18.95a34.59,34.59,0,0,1-15.68,11.5ZM146.5,71.36a19.1,19.1,0,0,0-1.58-8,13.89,13.89,0,0,0-5.24-5.87,19.29,19.29,0,0,0-7.17-2.85,51.78,51.78,0,0,0-9.77-.81H106.35V93.37h14.06a50.7,50.7,0,0,0,11.53-1.16A18.19,18.19,0,0,0,145,81.1,26.81,26.81,0,0,0,146.5,71.36Z" transform="translate(0 -2.53)"/><path d="M264.73,146.6H249.9l-10.41-29.18h-45L184.08,146.6H170l36.49-98.93a25.38,25.38,0,0,1-10-8.68,22.32,22.32,0,0,1-3.76-12.76,22.36,22.36,0,0,1,7.17-16.88,25.75,25.75,0,0,1,34.91,0,22.41,22.41,0,0,1,7.14,16.88A23.07,23.07,0,0,1,238.19,39a23.54,23.54,0,0,1-9.95,8.68Zm-29.6-41.13L217,55.19l-18.21,50.27h36.35Zm-3.8-79.1a13.76,13.76,0,0,0-4-10.09,14.48,14.48,0,0,0-20.11,0,13.79,13.79,0,0,0-4,10.05A14.06,14.06,0,1,0,231.33,26.36Z" transform="translate(0 -2.53)"/><path d="M358.71,94.35a53.86,53.86,0,0,1-6.22,25.87,46.46,46.46,0,0,1-16.56,18,51.53,51.53,0,0,1-16,6.4q-8.82,2-23.24,2H270.26V41.9h26.16q15.33,0,24.36,2.21a53.05,53.05,0,0,1,15.29,6.08A46.76,46.76,0,0,1,352.73,68Q358.71,79.1,358.71,94.35Zm-14.55-.21q0-12.3-4.29-20.74a31.49,31.49,0,0,0-12.8-13.29,43.45,43.45,0,0,0-13.15-4.89,87.5,87.5,0,0,0-16.66-1.37H284.18v80.79h13.08a91.66,91.66,0,0,0,17.54-1.48,39.37,39.37,0,0,0,13.75-5.48,31.5,31.5,0,0,0,11.71-13.15Q344.15,106.38,344.15,94.14Z" transform="translate(0 -2.53)"/><path d="M437.71,54.28H384.76V83.81h45.49V96.18H384.76V146.6H370.84V41.9h66.87V54.28Z" transform="translate(0 -2.53)"/><path d="M529.86,146.6H511.79l-35-41.62H457.15V146.6H443.23V41.9h29.32a85,85,0,0,1,15.82,1.23,33.26,33.26,0,0,1,11.39,4.39,26.44,26.44,0,0,1,8.89,9q3.2,5.45,3.2,13.82,0,11.32-5.7,18.95a34.59,34.59,0,0,1-15.68,11.5ZM497.3,71.36a19.1,19.1,0,0,0-1.58-8,13.89,13.89,0,0,0-5.24-5.87,19.28,19.28,0,0,0-7.17-2.85,51.78,51.78,0,0,0-9.77-.81H457.15V93.37h14.06a50.69,50.69,0,0,0,11.53-1.16,18.19,18.19,0,0,0,13-11.11A26.8,26.8,0,0,0,497.3,71.36Z" transform="translate(0 -2.53)"/><path d="M569.9,146.6H528.56V135.91h13.71V52.59H528.56V41.9H569.9V52.59H556.19v83.32H569.9V146.6Z" transform="translate(0 -2.53)"/></svg>