<?xml version="1.0" encoding="UTF-8"?>
<svg width="960px" height="960px" viewBox="0 0 960 960" version="1.1" xmlns="http://www.w3.org/2000/svg" xmlns:xlink="http://www.w3.org/1999/xlink">
    <!-- Generator: Sketch 57.1 (83088) - https://sketch.com -->
    <title>pair_roller</title>
    <desc>Created with Sketch.</desc>
    <style type="text/css">
    	.press {
    		animation: press 6s infinite;
    	}
    	
    	@keyframes press {
    		0%, 20%, 70%, 80%, 100% {
    			fill: rgba(255,255,255,0);
    		}
    		30%, 60% {
    			fill: #0074CC;
    		}
    	}
    	
    	.blink {
    		animation: blink 6s infinite;
    	}
    	
    	@keyframes blink {
    		0%, 70%, 76%, 82%, 88%, 100% {
    			fill: rgba(255,255,255,0);
    		}
    		73%, 79%, 85% {
    			fill: #0074CC;
    		}
    	}
    </style>
    <g id="pair_roller" stroke="none" stroke-width="1" fill="none" fill-rule="evenodd">
        <path d="M960,235 L960,249 L82,249 L82,555.831325 C82,573.048297 95.9250985,587 113.09589,587 C118.58091,587 123.027397,582.553513 123.027397,577.068493 L123.027219,565.292298 C123.401344,565.524238 123.782954,565.720485 124.172047,565.881039 L124.465271,565.994762 L137.027,565.996 L137.027397,577.068493 C137.027397,590.285499 126.312897,601 113.09589,601 C88.1871237,601 68,580.774308 68,555.831325 L68,242 C68,238.134007 71.1340068,235 75,235 L960,235 Z M960,366.469 L960,380.469 L137.027397,380.46988 L137.027,396.002 L124.465271,396.004565 C123.974226,396.18295 123.494876,396.417104 123.027219,396.707029 L123.027397,373.46988 C123.027397,369.603886 126.161404,366.46988 130.027397,366.46988 L960,366.469 Z" id="Combined-Shape" fill="#000000" fill-rule="nonzero"></path>
        <path d="M149.575,261 C149.575,259.660709 150.660709,258.575 152,258.575 L460,258.575 C461.339291,258.575 462.425,259.660709 462.425,261 L462.425,356 C462.425,357.339291 461.339291,358.425 460,358.425 L152,358.425 C150.660709,358.425 149.575,357.339291 149.575,356 L149.575,261 Z M154.425,263.425 L154.425,353.575 L457.575,353.575 L457.575,263.425 L154.425,263.425 Z" id="Rectangle" fill="#000000" fill-rule="nonzero"></path>
        <path d="M960,559 L960,565 L223,565 L223,960 L217,960 L217,559 L960,559 Z" id="Combined-Shape" fill="#000000" fill-rule="nonzero"></path>
        <path d="M147.744744,393.001161 C153.801375,393.001161 158.814367,397.70967 159.191379,403.754554 C159.836223,414.093795 160.370063,423.842249 160.792862,433.000232 L154.786439,433.000201 C154.367258,423.956791 153.839461,414.332635 153.203014,404.128041 C153.023267,401.24603 150.63323,399.001161 147.74562,399.001161 L125.057485,399.004479 C116.903357,402.849385 112,430.665348 112,480.999664 C112,531.334026 116.903366,559.149994 125.057508,562.994859 L148.286002,562.998676 C151.204105,562.998676 153.608217,560.707825 153.747838,557.793062 C154.244123,547.432733 154.65837,537.622856 154.990595,528.363628 C156.155946,528.824148 157.492313,529.035822 159,529.000185 L159,529.000185 L160.971593,528.999704 C160.641048,538.160386 160.230833,547.853803 159.740966,558.080144 C159.448118,564.19372 154.405602,568.998676 148.285016,568.998676 L123.936999,568.994675 L123.440938,568.814468 C111.233282,564.379718 106,535.618284 106,480.999664 C106,426.381043 111.233282,397.619609 123.440938,393.184859 L123.937025,393.004642 L147.744744,393.001161 Z" id="Combined-Shape" fill="#000000" fill-rule="nonzero"></path>
        <path d="M169.80985,427.001109 L170.219375,427.119948 C179.956972,429.945684 184,447.695179 184,481.00012 C184,514.305061 179.956972,532.054556 170.219375,534.880292 L169.809854,534.99913 L139.308196,535.00052 L140.063356,531.386711 C142.981719,517.420926 144.447692,499.910994 144.447692,478.87516 C144.447692,459.883502 143.252874,443.764596 140.872207,430.531167 L140.236929,426.999847 L169.80985,427.001109 Z M147.375008,433.000152 C149.425754,445.904073 150.447692,461.192492 150.447692,478.87516 C150.447692,498.538181 149.184125,515.241817 146.646483,529.000185 L168.892865,528.999172 C174.446432,526.787573 178,510.589818 178,481.00012 C178,451.410426 174.446433,435.212671 168.892867,433.000152 L147.375008,433.000152 Z" id="Combined-Shape" fill="#000000" fill-rule="nonzero" transform="translate(161.654098, 481.000183) scale(-1, 1) translate(-161.654098, -481.000183) "></path>
        <path d="M960,393 L960,399 L194.670883,399 C184.967568,413.614082 180,440.326927 180,479 C180,517.673073 184.967568,544.385918 194.670883,559 L960,559 L960,565 L191.557216,565 L190.659536,563.749149 C179.468926,548.155859 174,519.956491 174,479 C174,438.043509 179.468926,409.844141 190.659536,394.250851 L191.557216,393 L960,393 Z" id="Combined-Shape" fill="#000000" fill-rule="nonzero"></path>
        <path d="M114,295.35 C121.373001,295.35 127.35,289.373001 127.35,282 C127.35,274.626999 121.373001,268.65 114,268.65 C106.626999,268.65 100.65,274.626999 100.65,282 C100.65,289.373001 106.626999,295.35 114,295.35 Z M114,290.65 C109.222737,290.65 105.35,286.777263 105.35,282 C105.35,277.222737 109.222737,273.35 114,273.35 C118.777263,273.35 122.65,277.222737 122.65,282 C122.65,286.777263 118.777263,290.65 114,290.65 Z" id="Oval" fill="#000000" fill-rule="nonzero"></path>
        <path d="M114,344.35 C121.373001,344.35 127.35,338.373001 127.35,331 C127.35,323.626999 121.373001,317.65 114,317.65 C106.626999,317.65 100.65,323.626999 100.65,331 C100.65,338.373001 106.626999,344.35 114,344.35 Z M114,339.65 C109.222737,339.65 105.35,335.777263 105.35,331 C105.35,326.222737 109.222737,322.35 114,322.35 C118.777263,322.35 122.65,326.222737 122.65,331 C122.65,335.777263 118.777263,339.65 114,339.65 Z" id="Oval" fill="#000000" fill-rule="nonzero"></path>
        <circle class="press" id="Oval" fill="#2FB0E1" cx="114" cy="282" r="8"></circle>
        <circle class="press" id="Oval" fill="#2FB0E1" cx="114" cy="331" r="8"></circle>
        <circle id="Oval" fill="#000000" cx="114.5" cy="306.5" r="7.5"></circle>
        <circle class="blink" id="Oval"  fill="#000000" cx="114.5" cy="306.5" r="5.5"></circle>
        <path d="M147,566 L147,566 C136.333333,562.254341 131,533.921008 131,481 C131,428.078992 136.333333,399.745659 147,396 L147,396" id="Path" stroke="#000000" stroke-width="6"></path>
        <path d="M182.444742,299.071215 L189.028147,296.590782 C192.482613,295.8496 194.909586,296.676411 196.309067,299.071215 C198.408288,302.66342 198.190515,305.233312 194.155353,307.665177 C190.120191,310.097042 181.751416,314.522154 178.619958,307.665177" id="Path-3" stroke="#000000" stroke-width="3.05" stroke-linecap="round" stroke-linejoin="round" transform="translate(188.119958, 303.828018) rotate(-16.000000) translate(-188.119958, -303.828018) "></path>
        <path d="M169.52405,308.717755 L176.107455,306.237322 C179.561922,305.49614 181.988895,306.322951 183.388376,308.717755 C185.487597,312.30996 185.269823,314.879852 181.234662,317.311717 C177.1995,319.743582 168.830725,324.168694 165.699266,317.311717" id="Path-3" stroke="#000000" stroke-width="3.05" stroke-linecap="round" stroke-linejoin="round" transform="translate(175.199266, 313.474558) scale(-1, -1) rotate(-16.000000) translate(-175.199266, -313.474558) "></path>
    </g>
</svg>