<?xml version="1.0" encoding="UTF-8" standalone="no"?>
<svg
   xmlns:dc="http://purl.org/dc/elements/1.1/"
   xmlns:cc="http://creativecommons.org/ns#"
   xmlns:rdf="http://www.w3.org/1999/02/22-rdf-syntax-ns#"
   xmlns:svg="http://www.w3.org/2000/svg"
   xmlns="http://www.w3.org/2000/svg"
   version="1.1"
   id="Layer_1"
   x="0px"
   y="0px"
   viewBox="0 0 764.5 718.2"
   style="enable-background:new 0 0 764.5 718.2;"
   xml:space="preserve"><metadata
   id="metadata11"><rdf:RDF><cc:Work
       rdf:about=""><dc:format>image/svg+xml</dc:format><dc:type
         rdf:resource="http://purl.org/dc/dcmitype/StillImage" /><dc:title></dc:title></cc:Work></rdf:RDF></metadata><defs
   id="defs9" />
<style
   type="text/css"
   id="style2">
	.st0{fill-rule:evenodd;clip-rule:evenodd;}
</style>

<path
   id="path856"
   d="m 396.51541,158.18946 h -5.13112 l -66.06324,42.33179 -3.84835,2.56556 -7.0553,0.64139 -46.82152,-19.24172 -3.84835,-1.92417 -10.26225,1.92417 -118.01589,73.75994 c 0,0 -6.70094,4.80867 -9.62087,7.69668 -4.32081,4.27359 -7.93102,9.22471 -11.54503,14.1106 -3.66729,4.95791 -7.50826,9.87563 -10.26225,15.39337 -3.74438,7.50202 -6.473421,15.55689 -8.338081,23.73146 -1.72222,7.55012 -2.65034,15.34649 -2.56557,23.09008 0.0708,6.47028 0.2246,13.20934 2.56557,19.24171 2.16711,5.58438 10.262251,14.75199 10.262251,14.75199 l 7.69669,4.48973 347.63377,150.72684 c 0,0 8.35234,4.74484 12.98816,5.61218 4.15347,0.77712 8.58663,0.61518 12.66748,-0.48102 3.97165,-1.06689 7.41464,-3.59554 10.90365,-5.77253 34.53932,-21.55104 98.77417,-71.83583 98.77417,-71.83583 0,0 7.43134,-6.65937 12.22535,-12.60102 2.7546,-3.41403 4.9136,-5.29181 8.29917,-9.84763 4.31508,-5.80662 8.88349,-11.52252 12.1864,-17.95894 5.09541,-9.92945 9.01741,-20.55761 11.54504,-31.42814 1.85012,-7.9569 2.41842,-16.205 2.56555,-24.37284 0.11194,-6.21383 -0.0372,-12.51161 -1.28275,-18.60034 -1.04349,-5.10065 -2.30599,-10.37889 -5.13113,-14.75199 -3.03641,-4.70011 -7.2561,-8.89883 -12.18643,-11.54502 -2.51328,-1.34894 -8.33808,-1.92418 -8.33808,-1.92418 L 318.90713,203.7282"
   style="fill:none;stroke:#000000;stroke-width:5;stroke-linecap:butt;stroke-linejoin:miter;stroke-miterlimit:4;stroke-dasharray:none;stroke-opacity:1" /><path
   id="path858"
   d="m 513.24855,276.20535 29.50395,-21.16589 3.20696,-5.77251 -28.22119,-41.69041 -5.77253,-5.77251 -115.45033,-43.61457 h -5.13112 v 0"
   style="fill:none;stroke:#000000;stroke-width:5;stroke-linecap:butt;stroke-linejoin:miter;stroke-miterlimit:4;stroke-dasharray:none;stroke-opacity:1" /><path
   id="path860"
   d="m 460.0131,257.60502 -124.4298,82.7394 c 0,0 -11.39817,10.96208 -16.03477,17.31756 -5.6422,7.73384 -10.49662,16.14936 -14.1106,25.01423 -3.75889,9.22031 -6.00766,19.04983 -7.69669,28.86258 -1.26379,7.34225 -2.31354,14.84661 -1.79301,22.27862 0.54116,7.7265 1.82893,15.64274 5.07443,22.67541 1.38141,2.99331 5.9426,7.90571 5.9426,7.90571"
   style="fill:none;stroke:#000000;stroke-width:5;stroke-linecap:butt;stroke-linejoin:miter;stroke-miterlimit:4;stroke-dasharray:none;stroke-opacity:1" /><path
   id="path862"
   d="m 616.51245,315.97158 -126.35399,85.94636 c 0,0 -12.89636,13.42099 -17.95894,21.1659 -7.10604,10.87105 -13.77131,22.45644 -17.09745,35.01077 -2.87575,10.8543 -2.73958,22.40506 -2.14428,33.61807 0.40251,7.58138 0.76939,14.79186 3.84835,22.44864 2.961,7.36341 4.03772,10.53057 7.45617,14.91232 2.29651,2.94368 8.49842,7.29583 8.49842,7.29583"
   style="fill:none;stroke:#000000;stroke-width:5;stroke-linecap:butt;stroke-linejoin:miter;stroke-miterlimit:4;stroke-dasharray:none;stroke-opacity:1" /><path
   id="path864"
   d="m 522.86939,427.57357 53.23542,-39.12484 0.6414,33.99372 -53.23543,41.69036 z"
   style="fill:none;stroke:#000000;stroke-width:5;stroke-linecap:butt;stroke-linejoin:miter;stroke-miterlimit:4;stroke-dasharray:none;stroke-opacity:1" /><path
   id="path866"
   d="m 553.65614,405.76628 0.6414,13.46921 -31.10745,23.57111"
   style="fill:none;stroke:#000000;stroke-width:5;stroke-linecap:butt;stroke-linejoin:miter;stroke-miterlimit:4;stroke-dasharray:none;stroke-opacity:1" /><path
   id="path868"
   d="m 554.29754,419.23549 22.44867,3.20696"
   style="fill:none;stroke:#000000;stroke-width:5;stroke-linecap:butt;stroke-linejoin:miter;stroke-miterlimit:4;stroke-dasharray:none;stroke-opacity:1" /><path
   id="path870"
   d="m 551.95823,211.04998 c 0,0 2.49968,-1.78979 24.78798,-17.58402 2.66839,-1.89093 1.83484,-5.75766 1.01709,-8.48705 -0.63773,-2.12854 -2.11712,-4.33397 -4.30183,-5.09221 -2.55224,-0.88578 -3.85293,-1.59893 -5.35788,-0.56358 -24.63381,16.87487 -13.78994,9.08487 -24.56192,16.77964"
   style="fill:none;stroke:#000000;stroke-width:5;stroke-linecap:butt;stroke-linejoin:miter;stroke-miterlimit:4;stroke-dasharray:none;stroke-opacity:1" /><path
   style="fill:none;stroke:#000000;stroke-width:5;stroke-linecap:butt;stroke-linejoin:miter;stroke-miterlimit:4;stroke-dasharray:none;stroke-opacity:1"
   d="m 530.96229,226.92092 c 0,0 0.9613,-0.7779 19.64949,-13.89822 6.19993,-6.40185 -4.15274,-19.40163 -9.1464,-16.50176 -19.54181,13.64025 -9.68111,6.36036 -21.15168,14.90675"
   id="path874" /><path
   style="fill:none;stroke:#000000;stroke-width:5;stroke-linecap:butt;stroke-linejoin:miter;stroke-miterlimit:4;stroke-dasharray:none;stroke-opacity:1"
   d="m 463.74629,176.12803 c 0,0 2.49968,-1.78978 24.78799,-17.58402 2.66839,-1.89093 1.83484,-5.75766 1.0171,-8.48703 -0.63774,-2.12855 -2.11714,-4.334 -4.30185,-5.09223 -2.55223,-0.88578 -3.85293,-1.59892 -5.35787,-0.56358 -24.63382,16.87488 -13.78996,9.08487 -24.56193,16.77966"
   id="path878" /><path
   id="path880"
   d="m 457.90321,181.25567 c 0,0 1.52252,-1.25893 4.49663,-3.15492 6.19993,-6.40186 -4.15275,-19.40161 -9.14639,-16.50175 -19.54183,13.64025 -5.03103,3.1534 -16.50161,11.69978"
   style="fill:none;stroke:#000000;stroke-width:5;stroke-linecap:butt;stroke-linejoin:miter;stroke-miterlimit:4;stroke-dasharray:none;stroke-opacity:1" /><path
   d="m 505.84916,457.8529 a 1.2335632,1.8793659 0 0 1 -1.21786,-1.90151 1.2335632,1.8793659 0 0 1 1.24713,-1.85695 1.2335632,1.8793659 0 0 1 1.21983,1.89853 1.2335632,1.8793659 0 0 1 -1.24516,1.85998"
   id="path882"
   style="opacity:1;fill:#0029fd;fill-opacity:1;stroke:#000000;stroke-width:5;stroke-linecap:round;stroke-linejoin:round;stroke-miterlimit:4;stroke-dasharray:none;stroke-dashoffset:0;stroke-opacity:1;paint-order:markers stroke fill" /><path
   id="path888"
   d="m 608.60576,349.6974 c 0,0 4.98292,0.008 7.17442,0.87882 2.48794,0.98946 4.45858,2.83552 6.14953,4.68706 1.50742,1.65072 2.60729,3.58741 3.41633,5.56589 0.9976,2.43973 1.42224,5.0428 1.70821,7.61649 0.48602,4.3743 0.26953,8.79433 0,13.18237 -0.1734,2.82312 -0.515,5.64311 -1.03913,8.43422 -0.4498,2.39515 -1.80309,7.11193 -1.80309,7.11193 -0.55689,1.93689 -1.64579,3.73565 -2.62404,5.54564 -1.13508,2.1003 -2.34371,4.17994 -3.75801,6.15178 -1.53959,2.14652 -5.12458,6.15175 -5.12458,6.15175"
   style="fill:none;stroke:#000000;stroke-width:5;stroke-linecap:butt;stroke-linejoin:miter;stroke-miterlimit:4;stroke-dasharray:none;stroke-opacity:1" /><path
   style="fill:none;stroke:#000000;stroke-width:5;stroke-linecap:butt;stroke-linejoin:miter;stroke-miterlimit:4;stroke-dasharray:none;stroke-opacity:1"
   d="m 606.74768,362.31641 c 0,0 3.6094,0.006 5.1967,0.64566 1.80224,0.72696 3.2296,2.08325 4.45444,3.44357 1.09188,1.21278 1.88852,2.63565 2.47451,4.08923 0.72279,1.79244 1.0302,3.7049 1.2374,5.59578 0.35205,3.21378 0.17511,6.46056 0,9.685 -0.0972,1.78966 -0.25657,3.58213 -0.58228,5.34959 -0.40559,2.20145 -0.94172,4.39293 -1.70308,6.51597 -0.44729,1.24718 -1.04749,2.44806 -1.67412,3.63046 -0.81981,1.54703 -1.69765,3.07099 -2.72204,4.51968 -1.11522,1.57705 -3.712,4.51968 -3.712,4.51968"
   id="path890" /><path
   id="path892"
   d="m 603.54606,373.36607 c 0,0 2.67942,0.003 3.85789,0.37042 1.33779,0.41704 2.39741,1.19512 3.30659,1.97552 0.81061,0.69575 1.40212,1.51204 1.83697,2.34594 0.53655,1.02829 0.7649,2.12544 0.91865,3.21022 0.26132,1.84369 0.12845,3.70586 0,5.55616 -0.0712,1.02297 -0.20941,2.04527 -0.42609,3.06014 -0.25915,1.21362 -0.49134,2.44013 -1.04348,3.61455 -0.36065,0.76715 -0.94468,1.48638 -1.46979,2.21517 -0.63174,0.87664 -1.26024,1.76178 -2.02074,2.59288 -0.82793,0.90473 -2.75562,2.59286 -2.75562,2.59286"
   style="fill:none;stroke:#000000;stroke-width:5;stroke-linecap:butt;stroke-linejoin:miter;stroke-miterlimit:4;stroke-dasharray:none;stroke-opacity:1" /><path
   class="move"
   d="m 514.06346,462.99333 c 0.88835,-1.40642 2.72415,-1.82085 4.13055,-0.93247 l 24.11346,15.23122 c 5.15904,-5.50576 13.60587,-6.64528 20.07535,-2.55883 L 609.459,504.4689 c 7.41558,4.68408 9.61294,14.51452 4.94503,21.90454 -4.6679,7.39002 -14.5145,9.61292 -21.90452,4.94501 L 545.42332,501.5828 c -6.4439,-4.0703 -9.06932,-12.20361 -6.31394,-19.22766 L 514.99594,467.1239 c -1.40641,-0.88837 -1.82083,-2.72419 -0.93248,-4.13057 z m 98.57617,62.26562 c 4.0703,-6.44387 2.12324,-14.9715 -4.29511,-19.02564 l -47.07619,-29.73567 c -5.8302,-3.68264 -13.53676,-2.46906 -17.95425,2.82546 l -0.58683,0.70251 -25.64771,-16.20039 c -0.43471,-0.27457 -0.99327,-0.12657 -1.25169,0.28258 -0.27458,0.43472 -0.12658,0.99326 0.28258,1.25169 l 25.64772,16.20037 -0.3823,0.83175 c -2.8832,6.26358 -0.66827,13.74415 5.16195,17.42677 l 47.07618,29.73568 c 6.41832,4.05413 14.95538,2.1488 19.02565,-4.29511 z M 545.7459,483.00557 c 2.84275,-4.50051 8.80914,-5.84744 13.30963,-3.00471 l 47.0762,29.73567 c 4.50048,2.84274 5.84741,8.80913 3.00469,13.3096 -2.84273,4.50052 -8.80913,5.84743 -13.30962,3.0047 l -47.0762,-29.73568 c -4.50047,-2.84274 -5.84742,-8.80912 -3.0047,-13.30958 z m 61.62611,38.92611 c 2.22896,-3.52881 1.17403,-8.20179 -2.35477,-10.43074 l -47.07622,-29.73569 c -3.52876,-2.22895 -8.20173,-1.17403 -10.4307,2.35477 -2.22896,3.52881 -1.17403,8.20178 2.35475,10.43074 l 47.07623,29.73569 c 3.52876,2.22895 8.20176,1.17401 10.43071,-2.35477 z"
   id="path12"
   style="stroke-width:5;stroke-miterlimit:4;stroke-dasharray:none" /><path
   class="move white"
   d="m 546.5378,499.81838 47.07618,29.73568 c 6.44392,4.07029 14.97152,2.12323 19.02565,-4.29511 4.05414,-6.41832 2.12324,-14.9715 -4.29511,-19.02564 l -47.07619,-29.73567 c -5.8302,-3.68264 -13.53676,-2.46906 -17.95425,2.82546 l -0.58683,0.70251 -25.64771,-16.20039 c -0.43471,-0.27457 -0.99327,-0.12657 -1.25169,0.28258 -0.27458,0.43472 -0.12658,0.99326 0.28258,1.25169 l 25.64772,16.20037 -0.3823,0.83175 c -2.90876,6.24743 -0.66827,13.74415 5.16195,17.42677 z m -0.7919,-16.81281 c 2.84275,-4.50051 8.80914,-5.84744 13.30963,-3.00471 l 47.0762,29.73567 c 4.50048,2.84274 5.84741,8.80913 3.00469,13.3096 -2.84273,4.50052 -8.80913,5.84743 -13.30962,3.0047 l -47.0762,-29.73568 c -4.50047,-2.84274 -5.84742,-8.80912 -3.0047,-13.30958 z"
   id="path18"
   style="fill:#ffffff;stroke-width:5;stroke-miterlimit:4;stroke-dasharray:none" /><path
   style="fill:none;stroke:#000000;stroke-width:5;stroke-linecap:butt;stroke-linejoin:miter;stroke-opacity:1;stroke-miterlimit:4;stroke-dasharray:none"
   d="m 617.32534,528.18206 17.06408,-4.01214 -4.09537,4.97505 20.13556,13.48083 -6.65496,10.75254 -20.6475,-14.12275 -3.41281,5.45654 z"
   id="path863" /></svg>