<?xml version="1.0" encoding="utf-8"?>
<!-- Generator: Adobe Illustrator 21.0.0, SVG Export Plug-In . SVG Version: 6.00 Build 0)  -->
<svg version="1.1" id="Layer_1" xmlns="http://www.w3.org/2000/svg" xmlns:xlink="http://www.w3.org/1999/xlink" x="0px" y="0px"
	 viewBox="0 0 428.3 428.3" style="enable-background:new 0 0 428.3 428.3;" xml:space="preserve">
<style type="text/css">
.fillpulse {
	animation: fillpulse 3s infinite;
}

@keyframes fillpulse {
	0%, 15%, 30%, 45%, 60%, 100% {
		fill: rgba(255,255,255,0);
	}
	7%, 23%, 37%, 52% {
		fill: #0078CC;
	}
}
</style>
<g>
	<path d="M390,198.2c-3.7,0-7.2-2-9.1-5.3c-0.5-0.8-0.8-1.7-1.1-2.6c-0.1-0.8-0.2-1.4-0.3-2.1c-3.1-19.7-9.7-38.7-19.6-56.2v0
		c-0.3-0.5-0.5-0.9-0.8-1.4c-2-3.5-4.2-7-6.5-10.4c-0.3-0.5-0.7-1-1-1.4l-0.1-0.1c-1.2-2.7-0.2-5.9,2.4-7.4c2.4-1.4,5.5-0.9,7.3,1.3
		l0.5,0.8c0.6,0.9,1.2,1.8,1.8,2.7c4.6-2.3,10.4-0.8,13.3,3.5l0.8,1.5c11.4,20,19,41.7,22.5,64.3c0.1,0.5,0.2,1.1,0.2,1.6
		c0.3,4.1-1.7,7.8-5.2,9.8c-1.1,0.7-2.4,1.1-3.7,1.3C391,198.1,390.5,198.2,390,198.2z M352.8,118c0.3,0.5,0.6,0.9,1,1.4
		c2.3,3.4,4.5,6.9,6.5,10.4c0.3,0.5,0.5,0.9,0.8,1.4v0c10,17.7,16.7,36.8,19.8,56.7c0.1,0.7,0.2,1.4,0.3,2.1
		c0.2,0.7,0.5,1.5,0.9,2.2c1.9,3.3,5.5,5,9.2,4.4c1.1-0.2,2.2-0.5,3.2-1.1c3-1.7,4.8-5,4.5-8.5c-0.1-0.5-0.2-1-0.2-1.6
		c-3.5-22.4-11-43.9-22.4-63.8l-0.8-1.4c-2.6-3.8-7.9-5-12-2.7l-0.6,0.3l-0.4-0.6c-0.7-1.1-1.4-2.1-2.1-3.2l-0.5-0.7
		c-1.3-1.6-3.6-2-5.5-0.9C352.7,113.7,351.9,116,352.8,118z"/>
</g>
<g>
	<path d="M58.1,145.3c-1,0-2-0.3-2.9-0.8c-2.4-1.4-3.5-4.4-2.5-7l0.4-0.9c0.5-1,0.9-1.9,1.4-2.9c-4.3-2.9-5.9-8.6-3.7-13.3l0.8-1.5
		c11.6-19.9,26.6-37.3,44.4-51.6c0.4-0.3,0.9-0.7,1.3-1c3.4-2.3,7.6-2.4,11.1-0.4c1.1,0.7,2.1,1.5,3,2.6c2.7,3.4,3.1,8,0.9,11.8
		c-0.5,0.8-1,1.6-1.7,2.2c-0.6,0.5-1.1,0.9-1.7,1.3c-15.5,12.6-28.6,27.7-38.9,45.1l0,0c-0.3,0.5-0.5,0.9-0.8,1.4
		c-2,3.5-4,7.1-5.7,10.8c-0.3,0.5-0.5,1-0.8,1.6l-0.1,0.1C61.7,144.5,59.9,145.3,58.1,145.3z M103.3,66.1c-1.8,0-3.5,0.5-5.1,1.5
		c-0.4,0.3-0.8,0.6-1.2,1c-17.7,14.2-32.5,31.5-44.1,51.3l-0.8,1.4c-2,4.2-0.4,9.4,3.7,11.7l0.6,0.3l-0.3,0.6
		c-0.6,1.1-1.1,2.3-1.7,3.4l-0.4,0.8c-0.7,1.9,0.1,4.2,1.9,5.2c1.9,1.1,4.4,0.6,5.7-1.2c0.2-0.5,0.5-1,0.7-1.5
		c1.8-3.7,3.7-7.3,5.8-10.9c0.3-0.5,0.5-0.9,0.8-1.4c10.3-17.5,23.5-32.8,39.2-45.5c0.5-0.4,1.1-0.9,1.6-1.3c0.5-0.5,1-1.2,1.4-1.9
		c1.9-3.3,1.6-7.3-0.8-10.2c-0.7-0.9-1.6-1.6-2.6-2.2C106.4,66.5,104.8,66.1,103.3,66.1z"/>
</g>
<g>
	<path  d="M201.9,228.5c-2.8,1-5.9,0.8-8.4-0.4c-2.6-1.2-4.7-3.4-5.7-6.2l0,0c-1-2.8-0.8-5.9,0.4-8.4
		c1.2-2.6,3.4-4.7,6.2-5.7c3.1-1.1,6.2-2.2,9.3-3.4c2.8-1,5.9-0.8,8.4,0.4c2.6,1.2,4.7,3.4,5.7,6.2l0,0l0,0.1l1-0.5l1-0.4
		c-1.2-3.4-3.8-6-6.8-7.4c-3.1-1.4-6.6-1.7-10-0.5c-3.1,1.1-6.2,2.2-9.3,3.4c-3.4,1.2-6,3.8-7.4,6.8c-1.4,3-1.7,6.5-0.5,9.9l0.1,0.2
		c1.2,3.4,3.8,6,6.8,7.4c3.1,1.4,6.6,1.7,10,0.5l9.3-3.4l-0.7-2L201.9,228.5z"/>
	<path  d="M240,203.2L240,203c-1.2-3.4-3.8-6-6.8-7.4c-3.1-1.4-6.6-1.7-10-0.5l-9.3,3.4l0.7,2l9.3-3.4
		c2.8-1,5.9-0.8,8.4,0.4c2.6,1.2,4.7,3.4,5.7,6.2l0,0c1,2.8,0.8,5.9-0.4,8.4c-1.2,2.6-3.4,4.7-6.2,5.7c-3.1,1.2-6.2,2.3-9.3,3.4
		c-2.8,1-5.8,0.8-8.4-0.4c-2.6-1.2-4.7-3.4-5.7-6.2l0,0l0-0.1l-1,0.5l-1,0.4c1.2,3.4,3.8,6,6.8,7.4c3.1,1.4,6.6,1.7,10,0.5l9.3-3.4
		c3.4-1.2,6-3.8,7.4-6.8C240.9,210,241.2,206.5,240,203.2z"/>
</g>
<g>
	<path  d="M214.2,166.5c-26.3,0-47.7,21.4-47.7,47.7c0,26.3,21.4,47.7,47.7,47.7c26.3,0,47.7-21.4,47.7-47.7
		C261.8,187.9,240.5,166.5,214.2,166.5z M214.2,259c-24.7,0-44.8-20.1-44.8-44.8s20.1-44.8,44.8-44.8s44.8,20.1,44.8,44.8
		S238.9,259,214.2,259z"/>
	<path  d="M214.2,170.9c-23.8,0-43.2,19.4-43.2,43.2c0,23.8,19.4,43.2,43.2,43.2c23.8,0,43.2-19.4,43.2-43.2
		C257.4,190.3,238,170.9,214.2,170.9z M214.2,256c-23.1,0-41.8-18.8-41.8-41.8c0-23.1,18.8-41.8,41.8-41.8
		c23.1,0,41.8,18.8,41.8,41.8C256,237.2,237.2,256,214.2,256z"/>
</g>
<g>
	<path  d="M214.2,3.3C97.9,3.3,3.3,97.9,3.3,214.2C3.3,330.4,97.9,425,214.2,425C330.4,425,425,330.4,425,214.2
		C425,97.9,330.4,3.3,214.2,3.3z M214.2,419.3C101,419.3,9,327.3,9,214.2C9,101,101,9,214.2,9s205.2,92,205.2,205.2
		C419.3,327.3,327.3,419.3,214.2,419.3z"/>
	<path  d="M214.2,369.6c85.7,0,155.4-69.7,155.4-155.4c0-85.7-69.7-155.4-155.4-155.4c-85.7,0-155.4,69.7-155.4,155.4
		C58.8,299.9,128.5,369.6,214.2,369.6z M214.2,61.6c84.1,0,152.6,68.4,152.6,152.6s-68.4,152.6-152.6,152.6S61.6,298.3,61.6,214.2
		S130,61.6,214.2,61.6z"/>
	<path  d="M214.2,354.6c77.4,0,140.4-63,140.4-140.4s-63-140.4-140.4-140.4c-77.4,0-140.4,63-140.4,140.4
		S136.7,354.6,214.2,354.6z M83.7,214.2c0-72.1,58.4-130.5,130.5-130.5s130.5,58.4,130.5,130.5s-58.4,130.5-130.5,130.5
		S83.7,286.2,83.7,214.2z"/>
	<path  d="M214.2,341.7c70.3,0,127.6-57.2,127.6-127.6S284.5,86.6,214.2,86.6S86.6,143.8,86.6,214.2
		S143.8,341.7,214.2,341.7z M214.2,88.7c69.2,0,125.4,56.3,125.4,125.4c0,69.2-56.3,125.4-125.4,125.4
		c-69.2,0-125.4-56.3-125.4-125.4C88.7,145,145,88.7,214.2,88.7z"/>
	<path  d="M392.1,197.2c-0.2,0-0.4,0.1-0.6,0.1c-0.3,0-0.5,0-0.8,0.1c0.5,5.5,0.8,11.1,0.8,16.8
		c0,91.8-70.2,167.5-159.7,176.4c1-1,1.6-2.4,1.6-3.9c0-3-2.2-5.4-5.2-5.7l-0.1,0l-0.1,0c-0.6,0-1.2,0.1-1.7,0.1
		c-4.6,0.3-9.2,0.5-13.8,0.4c-20.2-0.2-39.8-3.9-58.5-11.1c-0.6-0.2-1.3-0.5-2-0.8c-0.9-0.2-1.8-0.4-2.8-0.4c-4.1,0-7.7,2.3-9.4,5.9
		C79.1,346.9,36.9,285.4,36.9,214.2c0-26.4,5.8-51.5,16.2-74c-0.1-0.8,0-1.6,0.3-2.3c0.1-0.3,0.3-0.5,0.4-0.8
		c0.6-1.1,1.1-2.3,1.7-3.4c-0.2-0.1-0.4-0.2-0.6-0.4c-12.4,24.3-19.4,51.8-19.4,81C35.5,286,78,348,139.3,376.4
		c-0.4,1.1-0.5,2.2-0.5,3.3c0,4,2.2,7.6,5.9,9.5c0.5,0.2,1,0.4,1.5,0.6c21.3,8.3,43.8,12.5,66.9,12.6l1,0l0.7,0
		c5.2-0.4,9.3-4.7,9.6-9.8c1.1-0.1,2.1-0.1,3.2-0.2l0.4,0c0,0,0.1,0,0.1,0l0.4,0c0,0,0,0,0,0c91.8-7.4,164.3-84.4,164.3-178.1
		C392.9,208.4,392.6,202.8,392.1,197.2z M223,391.2l0,0.7c0,4.7-3.7,8.7-8.3,9l-0.6,0l-1,0c-22.9-0.1-45.2-4.3-66.4-12.5
		c-0.5-0.2-1-0.4-1.5-0.6c-3.1-1.5-5.1-4.7-5.1-8.2c0-1.1,0.2-2.3,0.6-3.3c1.4-3.5,4.7-5.8,8.5-5.8c0.8,0,1.6,0.1,2.3,0.3
		c0.6,0.3,1.3,0.5,1.9,0.8c18.8,7.2,38.7,11,59,11.2h0c4.6,0,9.3-0.1,13.9-0.4c0.6,0,1.1-0.1,1.7-0.1c2.2,0.2,3.9,2.1,3.9,4.3
		c0,2.1-1.5,3.9-3.6,4.3l-0.9,0.1c-1.3,0.1-2.5,0.2-3.8,0.2L223,391.2z"/>
	<path  d="M214.2,364.4c82.8,0,150.2-67.4,150.2-150.2c0-82.8-67.4-150.2-150.2-150.2S63.9,131.3,63.9,214.2
		C63.9,297,131.3,364.4,214.2,364.4z M214.2,65.3c82.1,0,148.8,66.8,148.8,148.8S296.2,363,214.2,363S65.3,296.2,65.3,214.2
		S132.1,65.3,214.2,65.3z"/>
</g>
<g>
	<path class="fillpulse" d="M214.2,253.9c11,0,20.9-4.4,28.1-11.6c7.2-7.2,11.6-17.1,11.6-28.1c0-11-4.4-20.9-11.6-28.1
		c-7.2-7.2-17.1-11.6-28.1-11.6c-11,0-20.9,4.4-28.1,11.6c-7.2,7.2-11.6,17.1-11.6,28.1c0,11,4.4,20.9,11.6,28.1
		C193.3,249.4,203.2,253.9,214.2,253.9 M208.3,223.2c-0.6-0.5-1.2-1-1.7-1.6c-1.4-1.5-2.5-3.3-3.2-5.3c-0.5-1.5,0.2-3.1,1.7-3.6
		l0.9-0.3l0.8-0.4c1.4-0.7,3.1-0.1,3.8,1.3l0,0.1c0,0.1,0.1,0.2,0.1,0.3l0,0l0,0c0.4,1,0.9,1.9,1.6,2.7c0.7,0.8,1.6,1.4,2.6,1.9
		c1,0.5,2,0.7,3.1,0.8c1,0,2.1-0.1,3.1-0.5l0,0l0,0l4.7-1.7c1.7-0.6,3.3-1.2,4.6-1.7l0,0c1-0.4,1.9-0.9,2.7-1.7
		c0.8-0.7,1.4-1.6,1.9-2.6c0.5-1,0.7-2,0.8-3.1c0-1-0.1-2.1-0.5-3.1l0,0c-0.4-1-0.9-1.9-1.6-2.7c-0.7-0.8-1.6-1.4-2.6-1.9
		c-1-0.5-2-0.7-3.1-0.8c-1,0-2.1,0.1-3.1,0.5l-7.3,2.7c0.6,0.5,1.2,1,1.7,1.6c1.4,1.5,2.5,3.3,3.2,5.3c0.5,1.5-0.2,3.1-1.7,3.6
		l-0.9,0.3l-0.8,0.4c-1.4,0.7-3.1,0.1-3.8-1.3l0-0.1c-0.1-0.1-0.1-0.2-0.1-0.3l0,0l0,0c-0.4-1-0.9-1.9-1.6-2.7
		c-0.7-0.8-1.6-1.4-2.6-1.9c-1-0.5-2-0.7-3.1-0.8c-1,0-2.1,0.1-3.1,0.5c-2,0.8-4.4,1.6-6.8,2.5l-2.5,0.9c-1,0.4-1.9,0.9-2.7,1.6
		c-0.8,0.7-1.4,1.6-1.9,2.6c-0.5,1-0.7,2-0.8,3.1c0,1,0.1,2.1,0.5,3.1l0,0l0,0.1c0.4,1,0.9,1.8,1.6,2.6c0.7,0.8,1.6,1.4,2.6,1.9
		c1,0.5,2,0.7,3.1,0.8c1,0,2.1-0.1,3.1-0.5L208.3,223.2z M233.1,222.5l-9.3,3.4c-2,0.7-4.1,1-6.1,0.9c-1,0-2-0.2-3-0.4
		c0.4,1.4-0.3,2.9-1.7,3.5l-9.3,3.4c-2,0.7-4.1,1-6.1,0.9c-2.1-0.1-4.2-0.6-6.1-1.5c-1.9-0.9-3.6-2.1-5-3.7
		c-1.4-1.5-2.5-3.3-3.2-5.3l0,0l0,0l-0.1-0.2c0-0.1,0-0.2-0.1-0.2c-0.6-1.9-0.9-3.9-0.8-5.8c0.1-2.1,0.6-4.1,1.5-5.9
		c0.9-1.9,2.1-3.6,3.7-5c1.5-1.4,3.3-2.5,5.3-3.2l9.3-3.4c2-0.7,4.1-1,6.1-0.9c1,0,2,0.2,3,0.4c-0.4-1.4,0.3-2.9,1.7-3.5l9.3-3.4
		c2-0.7,4.1-1,6.1-0.9c2.1,0.1,4.2,0.6,6.1,1.5c1.9,0.9,3.6,2.1,5,3.7c1.4,1.5,2.5,3.3,3.2,5.3l0,0l0,0l0.1,0.2c0,0.1,0,0.2,0.1,0.2
		c0.6,1.9,0.9,3.9,0.8,5.8c-0.1,2.1-0.6,4.1-1.5,5.9c-0.9,1.9-2.1,3.6-3.7,5C236.9,220.6,235.1,221.7,233.1,222.5z"/>
</g>
</svg>