<?xml version="1.0" encoding="UTF-8" standalone="no"?>
<!-- Created with Inkscape (http://www.inkscape.org/) -->

<svg
   width="210mm"
   height="210mm"
   viewBox="0 0 210 210"
   version="1.1"
   id="svg5"
   inkscape:version="1.1 (ce6663b3b7, 2021-05-25)"
   sodipodi:docname="icon.svg"
   xmlns:inkscape="http://www.inkscape.org/namespaces/inkscape"
   xmlns:sodipodi="http://sodipodi.sourceforge.net/DTD/sodipodi-0.dtd"
   xmlns="http://www.w3.org/2000/svg"
   xmlns:svg="http://www.w3.org/2000/svg">
  <sodipodi:namedview
     id="namedview7"
     pagecolor="#ffffff"
     bordercolor="#666666"
     borderopacity="1.0"
     inkscape:pageshadow="2"
     inkscape:pageopacity="0.0"
     inkscape:pagecheckerboard="0"
     inkscape:document-units="mm"
     showgrid="false"
     inkscape:zoom="0.75187991"
     inkscape:cx="-60.514983"
     inkscape:cy="511.38486"
     inkscape:window-width="3768"
     inkscape:window-height="1016"
     inkscape:window-x="72"
     inkscape:window-y="27"
     inkscape:window-maximized="1"
     inkscape:current-layer="g95"
     height="210mm" />
  <defs
     id="defs2" />
  <g
     inkscape:label="Layer 1"
     inkscape:groupmode="layer"
     id="layer1">
    <g
       transform="matrix(0.03527778,0,0,-0.03527778,-182.06334,194.66569)"
       fill="#000000"
       stroke="none"
       id="g95">
      <g
         id="g2202"
         transform="translate(-45.697424,94.240521)">
        <path
           d="m 8173.9796,4078.9204 c -7.0515,-4.1479 -14.9326,-11.1994 -17.4213,-15.7622 -2.074,-4.1479 -3.7332,-31.9391 -3.7332,-61.3895 0.8296,-78.3962 -16.5917,-142.2745 -67.6114,-248.4618 -54.7529,-114.4832 -78.811,-211.1303 -72.1743,-291.1856 2.4888,-30.6948 4.148,-36.9167 15.3474,-49.3605 10.3699,-12.0291 15.3474,-14.103 30.28,-14.103 17.8362,0 38.9907,13.6882 39.8203,25.7172 0,2.9036 0,24.0581 -0.4148,46.8718 -0.8296,82.9588 16.5917,150.9851 60.9747,239.7511 39.8203,80.4701 59.3156,131.075 75.9074,199.9308 7.8811,31.5244 10.3699,131.9046 4.1479,147.252 -11.6142,27.7912 -39.4054,36.5019 -65.1227,20.7397 z"
           id="path79"
           style="stroke:#000000;stroke-width:37.5;stroke-miterlimit:4;stroke-dasharray:none;stroke-opacity:1" />
        <path
           d="m 8251.1314,3629.6982 c -17.0066,-13.2734 -21.1545,-26.1321 -18.251,-58.0712 4.9776,-54.7529 -15.3474,-111.5797 -69.2706,-192.0498 -52.2641,-78.8109 -73.4186,-136.8821 -73.8334,-206.1527 0,-50.605 14.103,-73.4186 45.6274,-73.4186 14.9326,0.4148 29.0356,9.1254 36.0871,22.8136 2.4887,4.5628 4.1479,26.1321 4.1479,47.7014 0,32.3539 1.6592,45.6274 11.1995,73.0038 6.2219,18.6657 16.5917,42.309 23.2284,53.0937 7.0515,10.7846 12.4439,20.7397 12.4439,22.3988 0,1.6592 5.3923,9.5403 12.029,17.8362 21.9841,26.5468 57.6564,92.9139 70.9298,132.7342 10.3699,30.28 14.103,48.5309 15.7622,81.2997 2.074,48.1161 -1.6592,63.0487 -19.9101,75.9073 -13.2734,9.1255 -39.8203,10.7847 -50.1901,2.9036 z"
           id="path81"
           style="stroke:#000000;stroke-width:37.5;stroke-miterlimit:4;stroke-dasharray:none;stroke-opacity:1" />
        <path
           d="m 8714.8714,3018.7062 c -0.4148,-0.4148 -113.6536,-2.074 -251.7801,-3.3184 -138.1265,-1.6592 -258.4169,-3.7331 -267.5424,-4.1479 -24.4728,-2.074 -352.5751,-6.2219 -659.5229,-8.7107 -312.7549,-2.9036 -314.4141,-2.9036 -338.0573,-38.5759 -13.6883,-20.7397 -14.9326,-31.9391 -7.8811,-75.4925 2.0739,-14.9326 5.8071,-41.0647 7.8811,-58.0712 2.0739,-17.0066 5.8071,-43.1386 8.2958,-58.0712 2.4888,-14.9326 6.222,-39.8203 8.2959,-55.9973 2.074,-15.7621 7.8811,-54.338 12.4439,-85.0328 4.5627,-30.6948 10.3698,-68.8558 12.4438,-85.0328 4.5627,-36.0871 14.9326,-104.5282 20.7397,-135.223 2.074,-12.4438 4.1479,-28.6208 4.1479,-35.6723 0,-7.4663 3.7332,-35.2575 8.7107,-62.2191 10.7847,-63.8783 17.8362,-107.8465 30.6948,-194.9533 21.5693,-145.178 62.6339,-228.1369 160.5254,-325.6136 26.9616,-26.5468 48.9457,-50.6049 48.9457,-53.0936 0,-3.7332 -39.4054,-4.5628 -154.7183,-3.7332 l -154.7182,1.2444 -15.3474,-9.5403 c -8.2959,-4.9775 -18.251,-13.2734 -21.5693,-18.2509 -9.9551,-14.103 -7.4663,-41.0647 6.2219,-71.3446 7.0515,-14.9326 12.4438,-29.0356 12.4438,-31.9392 0,-2.4888 7.8811,-21.9841 17.0066,-43.5534 15.3474,-34.4279 21.1545,-43.1386 49.3605,-70.515 36.9167,-35.2575 74.2482,-58.9008 119.8756,-74.663 l 31.5243,-11.1995 h 771.5174 c 819.6336,-0.4147 784.376,-1.2443 839.9585,19.0806 43.5534,15.3474 103.2838,58.486 126.927,91.2547 17.0066,23.6433 51.4345,95.8175 51.4345,108.2613 0,4.148 4.9776,17.0066 10.7847,29.0356 18.6657,36.0871 13.2734,63.4636 -16.177,82.1293 -12.8586,8.2959 -17.8362,8.2959 -173.7988,6.6367 -88.766,-1.2444 -160.9402,-1.2444 -160.9402,0 0,0.8296 21.5693,22.8137 47.7013,48.9458 25.7173,25.7172 53.9233,56.8268 61.8044,69.2706 8.2959,12.029 17.4214,25.7172 20.3249,30.28 23.6433,34.8427 29.4504,47.7013 50.1901,111.9944 15.7622,47.7014 20.3249,70.5151 31.9392,161.7698 4.5627,36.5019 9.955,77.5666 12.029,91.2548 2.074,13.6882 6.2219,41.8942 8.7107,63.0487 l 4.9775,38.1611 23.2285,2.4887 c 44.383,4.9776 56.412,6.6367 87.1068,12.8587 65.1227,13.2734 104.5282,34.4279 155.5479,83.7884 25.7176,24.8877 40.6496,53.0937 52.6786,100.3802 7.467,30.28 8.711,42.309 6.637,89.1808 -1.659,46.457 -3.733,58.0712 -14.103,85.4476 -11.199,28.206 -29.8652,60.56 -49.7754,85.4477 -24.8876,30.2799 -99.9654,64.2931 -160.1106,71.7594 -15.7621,1.6591 -29.0356,4.1479 -29.8652,4.9775 -0.8295,0.8296 0,8.7107 2.074,17.8362 12.0291,51.4344 -7.0515,89.5955 -51.4345,102.4541 -12.029,3.3184 -72.1742,4.9776 -206.9823,4.9776 -104.5282,0.4148 -190.3906,0 -190.8054,0 z m 348.4272,-104.1134 c 1.2444,-2.9036 -2.074,-31.1096 -6.6367,-62.2191 -16.5918,-114.4833 -39.8203,-294.9188 -43.9682,-341.3757 -2.9036,-32.7688 -8.7107,-80.8849 -16.5918,-130.6602 -3.3183,-20.325 -7.8811,-55.9973 -10.3698,-78.811 -4.5628,-41.0646 -20.7397,-157.6218 -29.4504,-209.4711 -10.3699,-62.6339 -45.6274,-140.2005 -85.8624,-190.3906 -46.0422,-56.412 -88.766,-90.8399 -153.8887,-123.1939 -73.8334,-36.9167 -31.1096,-34.0131 -541.3066,-36.0871 l -451.2962,-1.6592 -26.9616,9.9551 c -72.1742,26.1321 -118.2164,53.9233 -165.5029,100.795 -48.531,48.1162 -87.9364,111.1649 -107.8466,173.7988 -14.9325,46.0422 -19.9101,73.4186 -41.0646,218.1818 -5.8071,38.9907 -13.2734,89.1808 -16.5918,111.9945 -23.2284,155.1331 -45.2125,307.7774 -52.264,360.871 -4.148,34.428 -10.7847,77.1518 -14.103,95.4027 -3.3184,18.6658 -7.4663,46.0422 -9.1255,60.9748 -2.074,24.4728 -1.6592,27.3764 5.3923,29.4504 4.5627,1.2444 100.3802,2.074 213.2043,2.074 112.824,0 223.1593,1.6591 245.1434,2.9035 21.9841,1.6592 41.0646,1.2444 42.309,-0.8296 0.8296,-1.6592 2.4888,-79.6405 3.3184,-172.5544 1.6592,-146.8372 0.8296,-169.6509 -4.5628,-172.9692 -3.3183,-2.074 -29.8652,-4.148 -58.9008,-4.148 -76.3221,0 -103.6985,-11.1994 -124.4382,-51.4345 -7.8811,-15.3474 -8.2959,-22.3989 -6.6367,-186.6574 1.6591,-168.4065 1.6591,-170.8952 11.1994,-188.7314 4.9775,-9.9551 14.5178,-22.3989 20.3249,-28.206 24.0581,-21.9841 25.7173,-21.9841 203.2492,-22.3989 194.1238,-0.8296 197.8569,0 222.3298,32.7687 7.4663,10.7847 15.7621,26.1321 17.8361,34.0132 2.4888,8.2959 3.3184,82.1292 2.4888,176.2876 -1.6592,177.1171 -2.9036,184.1686 -26.9616,211.9598 -7.0515,7.8811 -16.177,14.103 -20.7398,14.103 -4.1479,0 -11.6142,2.074 -16.1769,4.5628 -4.9776,2.4887 -32.7688,4.1479 -68.8559,4.1479 -39.8202,-0.4148 -62.2191,1.2444 -65.9523,4.148 -7.8811,6.2219 -8.7107,341.7905 -1.2444,346.3532 2.9036,1.6592 212.3747,3.7332 465.814,4.5627 253.4393,0.8296 502.7307,2.9036 554.1652,4.5628 134.3934,4.1479 158.8662,3.7331 160.5254,-2.074 z m 179.6059,-129.001 c 31.1096,-14.5178 62.634,-44.383 72.1742,-69.2707 3.3184,-9.1254 8.2959,-28.6208 10.7847,-43.5534 17.8362,-114.4832 -24.0581,-188.3166 -123.6087,-217.767 -29.8652,-9.1254 -93.7435,-18.2509 -97.8915,-14.5178 -3.3183,3.3184 0.4148,40.6499 9.9551,103.6986 3.3184,22.3989 17.0066,136.0525 27.3764,226.0629 3.3184,29.8652 5.3924,35.2575 15.3474,38.9907 10.7847,4.1479 48.1162,-6.222 85.8624,-23.6433 z M 7981.5151,2461.6374 c 8.2959,-5.3923 12.029,-268.7867 3.7331,-279.1565 -4.9775,-6.2219 -20.3249,-7.0515 -141.03,-8.7107 -107.017,-1.6592 -136.4674,-0.8296 -140.2005,3.3183 -5.3923,6.222 -7.8811,275.0087 -2.9036,283.3046 2.4888,3.7331 34.8428,4.9775 138.9561,4.9775 74.663,0 138.1265,-1.6592 141.4449,-3.7332 z M 7760.0149,1637.856 c 32.7688,-5.8072 85.0329,-6.6367 433.4601,-4.9776 316.0732,1.2444 399.8617,2.4888 414.7943,7.0515 14.5178,4.148 69.2706,5.3924 250.9505,5.8072 l 232.2848,0.4147 -1.6592,-10.3698 c -2.4887,-17.8362 -21.1545,-50.6049 -42.309,-72.589 -14.103,-15.3474 -30.28,-26.1321 -54.338,-37.7463 l -34.428,-16.177 -408.5723,-2.4887 c -224.8185,-1.2444 -572.831,-2.074 -773.5914,-2.074 l -365.019,0.4148 -28.6208,14.5178 c -52.2641,26.132 -97.8914,79.2257 -97.8914,113.6536 v 10.3699 l 48.9457,1.2444 c 26.5468,0.8296 125.2679,0.8296 218.5966,0.4148 133.9785,-0.8296 177.9467,-2.4888 207.3971,-7.4663 z"
           id="path83"
           style="stroke:#000000;stroke-width:37.5;stroke-miterlimit:4;stroke-dasharray:none;stroke-opacity:1" />
      </g>
      <path
         d="m 8120.5101,2554.5415 c 0,-5.3924 26.9617,-30.6948 33.1836,-30.6948 3.3183,0 -0.8296,6.6367 -10.3699,16.5918 -15.3474,15.3473 -22.8137,20.3249 -22.8137,14.103 z"
         id="path89"
         style="stroke-width:0.414794" />
      <path
         d="m 8135.9501,2541.624 c -9.54,-9.5402 -8.296,-12.4438 1.659,-3.7331 4.563,4.1479 8.296,8.2959 8.296,9.1255 0,2.9035 -3.733,0.8295 -9.955,-5.3924 z"
         id="path91"
         style="stroke-width:0.414794" />
      <path
         d="m 8135.3226,2540.7067 c -3.733,-2.4887 -4.148,-4.1479 -1.244,-4.1479 2.489,0 6.222,2.074 7.466,4.1479 3.319,4.9776 1.66,4.9776 -6.222,0 z"
         id="path93"
         style="stroke-width:0.414794" />
      <g
         id="updown_remote_control/icon"
         stroke="none"
         stroke-width="1"
         fill="none"
         fill-rule="evenodd"
         transform="matrix(7.4999995,0,0,-7.4999995,3883.1769,6790.5218)">
        <rect
           id="Rectangle"
           stroke="#000000"
           stroke-width="40"
           x="194.52937"
           y="194.3394"
           width="745.47198"
           height="744.66058"
           rx="276"
           style="stroke:#000000;stroke-width:24.799;stroke-miterlimit:4;stroke-dasharray:none;stroke-opacity:1" />
      </g>
    </g>
  </g>
</svg>
